<svg width="100" height="101" fill="none" xmlns="http://www.w3.org/2000/svg"><path d="M36.212 32.916l-6.102-6.629-6.157 5.823 2.29 7.588-1.383 4.536-6.444 13.746-3.436-.763c-.597 1.24-1.313 2.816-1.527 4.773-.154 1.395 2.375 4.087 3.107 4.755 3.055-2.418 10.162-8.765 10.162-8.765l5.365-5.376-.594-15.096 4.72-4.592z" fill="#3F4DA2"/><path d="M42.878 24.827l4.248 4.487c1.098.445 4.038.63 7.016-2.196 2.979-2.825 3.023-6.46 2.673-7.923l-4.2-4.535c-1.193-.19-4.391.105-7.637 2.816-3.246 2.712-2.753 6.03-2.1 7.351z" fill="#525252"/><path d="M66.519 49.804l-3.07-4.023-3.164 4.132 3.451 5.128-1.201 11.7c.175.302.995 2.837 1.453 3.906.573 1.337 2.445 5.803 3.59 8.19 1.146 2.386 5.754 7.451 10.907 6.513 4.367-.795 3.58-7.207 2.625-10.405-.19.54-.64 1.67-.906 1.861-.268.191-1.767.462-2.482.573-.398.223-2.002.333-3.666 0-1.197-.24-2.33-2.4-2.553-2.575-2.036-3.437-3.484-6.069-4.515-10.078-1.031-4.01.633-8.662 1.937-10.97l-2.406-3.952z" fill="#3F4DA2"/><ellipse cx="51.188" cy="23.396" rx="4.518" ry="7.209" transform="rotate(45 51.188 23.396)" stroke="#0E0E0E" stroke-width="2"/><path d="M56.487 18.506L53.61 15.29c-1.764-1.764-5.476-.912-8.291 1.903-2.816 2.816-3.668 6.528-1.904 8.292l2.742 3.072" stroke="#0E0E0E" stroke-width="2"/><path d="M23.556 32.354l-.838.545a1 1 0 01.159-1.279l.68.734zm2.42 9.091l.941.337-.941-.337zM8.67 22.913l-.618.787.348-1.75.27.963zm5.323-1.497l-.27-.962a1 1 0 011.063.354l-.793.608zm4.789 35.629l-.873-.489.873.489zm-1.618.73l.2-.98-.2.98zM30.915 26.9l-6.68 6.188-1.358-1.468 6.678-6.187 1.36 1.467zm-7.359 5.454l.84-.544v.002a3.125 3.125 0 01.013.02l.034.054a22.156 22.156 0 01.539.917 23.26 23.26 0 011.172 2.418c.397.962.767 2.066.952 3.18.184 1.106.2 2.296-.189 3.38l-1.883-.672c.23-.645.253-1.456.099-2.38-.152-.914-.465-1.867-.828-2.745a21.567 21.567 0 00-1.555-3.033c-.011-.02-.02-.033-.026-.042l-.006-.01c0-.001 0-.001 0 0l.838-.545zm3.361 9.428c-2.49 6.967-5.94 13.39-7.261 15.75l-1.746-.976c1.302-2.325 4.689-8.636 7.124-15.447l1.883.673zm-9.952 16.973l-2.203-.45.4-1.96 2.203.45-.4 1.96zm10.3-36.52l-.78.625h-.001l-.001-.002-.004-.004-.01-.013a5.161 5.161 0 01-.158-.208 16.775 16.775 0 01-1.584-2.629c-.776-1.614-1.526-3.918-.845-6.094l1.909.598c-.446 1.423.019 3.132.739 4.63a14.772 14.772 0 001.486 2.435l.024.03.005.006-.78.626zm-11.72 7.356l-7.492-5.892 1.237-1.572 7.49 5.892-1.236 1.572zM8.4 21.95l5.322-1.497.542 1.925-5.323 1.497L8.4 21.95zm5.593-.535l.793-.608.001.001.003.004.013.016c.01.015.027.036.049.064l.184.237c.156.203.377.485.63.804a65.385 65.385 0 001.646 2.017L15.8 25.257a67.005 67.005 0 01-1.702-2.083 127.088 127.088 0 01-.878-1.125l-.014-.018-.003-.004-.001-.001.793-.61zm5.662 36.117a2.5 2.5 0 01-2.69 1.222l.4-1.96a.5.5 0 00.544-.239l1.746.977z" fill="#0E0E0E"/><path d="M33.81 30.087c2.792 2.896 6.492 6.77 6.492 6.77l3.977 4.396-6.63 6.49L35.556 46c-1.373 2.838-4.453 8.82-5.793 10.049-1.34 1.228-9.304 7.444-13.118 10.398-1.14-.419-3.072-1.605-3.35-3.908-.318-2.634 7.746-18.912 6.978-22.401-.767-3.49-4.404-10.44-4.404-10.44l11.104-7.878s3.627 4.937 6.838 8.268z" stroke="#0E0E0E" stroke-width="2"/><path d="M17.271 65.958l1.048 4.431 2.442.524c3.222-2.28 11.25-8.36 17.586-14.446 6.336-6.085 11.2-11.678 12.84-13.713-.267-.628-2.13-2.075-3.733-.488-1.78 1.762-2.757 2.721-2.757 2.721l-2.023-1.85" stroke="#0E0E0E" stroke-width="2"/><path d="M19.295 64.404v0c.388 1.542 2.254 2.148 3.473 1.127l1.766-1.478a3.599 3.599 0 001.02-4.126l-.118-.285m2.652-2.164v0a1.987 1.987 0 003.211.711l7.87-7.428a3.26 3.26 0 00.05-4.693v0" stroke="#0E0E0E" stroke-width="2"/><path d="M36.261 33.46l-4.948 4.498.9 13.404" stroke="#0E0E0E" stroke-width="2" stroke-linecap="round" stroke-linejoin="round"/><path d="M75.675 85.718l-2.318 4.315-2.18.138c-2.84-2.556-7.515-8.097-12.736-15.352a1707.244 1707.244 0 01-9.71-13.638l.917-.8a1.539 1.539 0 012.218.204l1.663 2.099 2.355-1.994" stroke="#0E0E0E" stroke-width="2"/><path d="M73.297 84.412l-.537 1.246a.77.77 0 01-1.269.22l-2.297-2.46a.77.77 0 01-.07-.963l.588-.847m-2.175-2.752v0a1.122 1.122 0 01-1.863.061L57.598 67.67a2.517 2.517 0 01.177-3.155v0" stroke="#0E0E0E" stroke-width="2"/><path d="M66.844 41.715C63.665 43.033 54.085 57.74 54.085 57.74l4.4 7.448 2.302-1.915 4.529 8.983s4.422 9.76 5.664 10.789c1.243 1.03 7.704 5.644 10.544-.426 2.84-6.07-4.935-16.65-5.964-20.448-.27-.993-.3-2.513-.131-3.575" stroke="#0E0E0E" stroke-width="2"/><path d="M60.653 50.317l3.122 4.399-.99 11.666" stroke="#0E0E0E" stroke-width="2" stroke-linecap="round" stroke-linejoin="round"/><path d="M63.492 45.46l5.398 8.4s-3.258 7.805-2.03 11.528c.765 2.323 3.413 7.662 5.442 10.705 1.799 2.699 6.612 1.17 6.612 1.17m-4.786-27.881l1.822-7.18s.246 1.944 3.638 2.368c3.492.437 4.426-1.05 4.426-1.05s-8.654 9.363-8.654 16.11m-9.607-17.06l3.688-7.25 3.647 3.906-3.315 3.656" stroke="#0E0E0E" stroke-width="2"/><path d="M66.207 42.56c1.89 1.98 8.75 7.898 8.75 7.898l-2.61 4.768s-2.396 4.923-1.189 9.29c1.432 4.26 2.787 10.703 6.035 12.371 2.283 1.172 4.42-1.012 3.746-2.964" stroke="#0E0E0E" stroke-width="2"/></svg>