<svg width="100" height="101" fill="none" xmlns="http://www.w3.org/2000/svg"><path d="M60.202 37.24l10.795 2.248 7.107 1.44-39.267 32.88-.81-2.294-4.138.36.45 3.643-18.127-3.643 43.99-34.635z" fill="#525252"/><path d="M34.353 67.69l.597-.884h2.53l.725.883v16.825h-3.852V67.69z" stroke="#0E0E0E" stroke-width="2"/><path d="M59.37 15.177h-4.774l-.334.525v2.386h5.107v-2.911zm23.652 64.679h-4.773l-.334.525v2.387h5.107v-2.912zM59.37 76.631h-4.774l-.334.525v2.387h5.107V76.63zm-20.656 7.647H33.94l-.335.525v2.386h5.108v-2.911zm-18.293-2.905h-4.773l-.334.524v2.387h5.107v-2.911z" fill="#D45246"/><path d="M82.311 22.882h-3.686V79.61h3.686V22.882z" stroke="#0E0E0E" stroke-width="2"/><rect width="5.356" height="3.11" rx=".769" transform="matrix(-1 0 0 1 83.147 79.658)" stroke="#0E0E0E" stroke-width="2"/><rect width="5.356" height="4.637" rx=".769" transform="matrix(-1 0 0 1 83.147 18.246)" fill="#D45246" stroke="#0E0E0E" stroke-width="2"/><rect width="5.356" height="3.11" rx=".769" transform="matrix(-1 0 0 1 38.839 84.278)" stroke="#0E0E0E" stroke-width="2"/><path d="M16.15 68.17v13.103m3.685 0v-6.16" stroke="#0E0E0E" stroke-width="2"/><rect width="5.356" height="3.11" rx=".769" transform="matrix(-1 0 0 1 20.67 81.273)" stroke="#0E0E0E" stroke-width="2"/><path d="M20.038 62.271a2.045 2.045 0 00-2.045-2.044v0c-1.13 0-2.045.915-2.045 2.044v1.112c0 .083.067.15.15.15h3.79a.15.15 0 00.15-.15V62.27zM55 76.822V63.879m3.687 12.943V60.898M55 40.979V18.753h3.687v19.103" stroke="#0E0E0E" stroke-width="2"/><rect width="5.356" height="3.11" rx=".769" transform="matrix(-1 0 0 1 59.521 76.532)" stroke="#0E0E0E" stroke-width="2"/><path d="M74.1 39.871L38.493 68.206M34.25 74.99l-3.658-.503 3.55-2.823m44.412-30.556L37.983 74.123m31.125-35.084L25.754 73.622m38.609-35.505l-43.39 34.642" stroke="#0E0E0E" stroke-width="2" stroke-linejoin="round"/><path d="M33.665 75.022l-17.472-3.128L59.64 37.24l18.622 3.395" stroke="#0E0E0E" stroke-width="2" stroke-linejoin="round"/><path d="M62.676 17.718l14.416 1.868" stroke="#0E0E0E" stroke-width="2" stroke-linecap="square" stroke-linejoin="round"/><path d="M38.205 65.35a2.045 2.045 0 00-4.09 0v1.111c0 .083.068.15.151.15h3.789a.15.15 0 00.15-.15V65.35z" fill="#525252" stroke="#0E0E0E" stroke-width="2"/><path d="M58.888 13.859c0-1.13-.915-2.045-2.044-2.045v0c-1.13 0-2.045.915-2.045 2.045v1.111c0 .083.067.15.15.15h3.789a.15.15 0 00.15-.15v-1.11z" stroke="#0E0E0E" stroke-width="2"/><path d="M82.53 16.726a2.045 2.045 0 00-4.089 0v1.112c0 .083.068.15.15.15h3.79a.15.15 0 00.15-.15v-1.112z" fill="#525252" stroke="#0E0E0E" stroke-width="2"/><rect width="5.356" height="4.637" rx=".769" transform="matrix(-1 0 0 1 59.522 15.67)" fill="#D45246" stroke="#0E0E0E" stroke-width="2"/><rect width="5.356" height="4.637" rx=".769" transform="matrix(-1 0 0 1 38.839 66.806)" fill="#D45246" stroke="#0E0E0E" stroke-width="2"/><rect width="5.356" height="4.637" rx=".769" transform="matrix(-1 0 0 1 20.671 63.533)" fill="#D45246" stroke="#0E0E0E" stroke-width="2"/></svg>