<svg width="100" height="101" fill="none" xmlns="http://www.w3.org/2000/svg"><g clip-path="url(#clip0_435_5879)"><path d="M41.282 49.322l2.196-.763 4.964 1.622 1.384 5.155-.43 2.387 23.627 13.58 4.153-2.316 4.01 1.91 2.29 4.486s-1.766 6.468-3.603 7.78c-1.838 1.313-3.295 3.283-5.752 3.007-1.957-.219-3.055-1.495-4.391-2.482l-1.05-1.766-.382-2.147.764-1.719L45.1 64.501l-3.819 2.482c-.732.031-2.196.076-2.196 0 0-.077-2.672-1.687-4.009-2.483l-1.241-4.677 2.482-5.441 2.768-4.2 2.196-.86zM82.796 26.51l-1.408 4.29c.662.524 2.538 1.586 4.748 1.631 2.764.056 6.837-3.162 7.08-3.5a855.74 855.74 0 002.69-3.863c-1.358-.783-4.712-2.375-7.254-2.476-2.543-.101-4.964 2.57-5.856 3.919zm-26.523 9.27l-.404 2.29-1.079 1.658-3.102 1.623H49.73l-2.817-1.241-1.932-1.344L21.603 52.77l.61 2.09-1.336 2.935-2.9 2.298-2.613.71-2.888-1.432s-1.625-.692-3.007-3.198c-1.381-2.506-3.323-5.865-1.885-7.876 1.146-1.602 1.184-2.918 2.697-3.604l2.661-1.002 2.398 1.002 2.3 1.324L41.16 31.71l-.594-2.149.29-2.395c.33-.654.304-1.136 1.071-1.917.053-.054 2.543-1.59 3.89-2.37l2.386.382 2.339 1.385 3.736 4.333 1.995 4.783v2.018z" fill="#53AADF"/><path d="M17.45 45.97l-2.48-1.575a3.846 3.846 0 00-3.757-.205l-.885.435a3.846 3.846 0 00-1.656 1.564L7.49 48.287a3.846 3.846 0 00-.144 3.494l2.242 4.878c.276.6.7 1.122 1.247 1.493.928.631 2.078 1.368 3.038 1.973a3.795 3.795 0 003.917.066l1.858-1.069a3.85 3.85 0 001.647-1.886l.45-1.103a3.846 3.846 0 00.062-2.737l-.26-.736m26.957-29.177l1.898 1.171c.379.234.715.532.992.881l2.323 2.925c.197.249.363.52.493.81l1.318 2.916.492 1.266c.264.678.33 1.418.19 2.132l-.393 2.011c-.186.951-.723 1.8-1.544 2.314-.607.381-1.283.784-1.897 1.143a3.71 3.71 0 01-3.883-.092 126.407 126.407 0 01-2.703-1.78 3.693 3.693 0 01-1.144-1.267l-3.6-6.498a3.846 3.846 0 01-.401-2.65l.365-1.75a3.846 3.846 0 011.76-2.496l1.707-1.044a3.846 3.846 0 014.027.008z" stroke="#0E0E0E" stroke-width="2"/><path d="M14.749 44.25v0a1.16 1.16 0 00-1.657.429l-.81 1.527a2.74 2.74 0 00-.07 2.43l2.454 5.34a3.847 3.847 0 001.39 1.612l3.784 2.476a.872.872 0 001.28-.386v0m27.04-34.412v0a1.092 1.092 0 00-1.598.516l-.801 1.993a2.882 2.882 0 00.083 2.339l3.033 6.217a3.847 3.847 0 001.15 1.391l4.337 3.25a.808.808 0 001.255-.404v0" stroke="#0E0E0E" stroke-width="2"/><path d="M41.344 32.042c-2.935 1.593-9.749 5.34-13.517 7.578-2.801 1.665-7.373 4.463-10.535 6.416a3.059 3.059 0 00-.962 4.258l.827 1.29a3.06 3.06 0 004.013 1.056 1894.41 1894.41 0 0012.05-6.466c3.823-2.075 9.74-5.916 12.22-7.578m27.466 32.82l2.48-1.574a3.846 3.846 0 013.758-.205l.885.434a3.847 3.847 0 011.655 1.565l1.182 2.098a3.846 3.846 0 01.144 3.494l-2.241 4.878c-.276.6-.7 1.122-1.247 1.493-.928.63-2.078 1.367-3.039 1.973a3.793 3.793 0 01-3.916.066l-1.858-1.07a3.85 3.85 0 01-1.647-1.885l-.45-1.103a3.846 3.846 0 01-.063-2.737l.261-.736M41.824 48.93l-1.898 1.17c-.38.234-.715.533-.992.882l-2.324 2.925c-.197.248-.362.52-.493.808L34.8 57.632l-.493 1.266a3.846 3.846 0 00-.19 2.132l.393 2.011c.186.952.723 1.8 1.544 2.314.608.382 1.283.785 1.898 1.144a3.71 3.71 0 003.883-.092 126.16 126.16 0 002.702-1.781 3.693 3.693 0 001.145-1.267l3.6-6.498a3.843 3.843 0 00.4-2.65l-.365-1.75a3.846 3.846 0 00-1.758-2.496l-1.709-1.044a3.846 3.846 0 00-4.026.008z" stroke="#0E0E0E" stroke-width="2"/><path d="M75.606 69.697v0a1.16 1.16 0 011.657.428l.81 1.528c.4.754.426 1.652.07 2.428l-2.454 5.34a3.846 3.846 0 01-1.389 1.613l-3.784 2.477a.872.872 0 01-1.28-.387v0M42.168 48.712v0a1.092 1.092 0 011.597.516l.802 1.993a2.881 2.881 0 01-.084 2.339l-3.032 6.216a3.847 3.847 0 01-1.15 1.392l-4.338 3.25a.808.808 0 01-1.255-.404v0" stroke="#0E0E0E" stroke-width="2"/><path d="M49.012 57.49c2.936 1.592 9.75 5.338 13.517 7.577 2.802 1.665 7.373 4.463 10.535 6.416a3.059 3.059 0 01.963 4.258l-.828 1.29a3.06 3.06 0 01-4.013 1.056 1894.41 1894.41 0 01-12.05-6.466c-3.823-2.075-9.74-5.917-12.22-7.578" stroke="#0E0E0E" stroke-width="2"/><path d="M78.95 24.97c-3.473-1.212-12.261-3.201-16.289 4.231-5.034 9.29-4.922 23.645 7.228 27.925 13.741 4.84 23.677-7.386 24.065-16.247.31-7.088-2.519-9.234-3.972-9.42m-10.12-1.163c.233-.953.293-2.968-.272-4.56-.708-1.992-1.498-2.573-.634-3.475.864-.901 2.584-1.067 3.317.667.733 1.735.223 5.343-.247 6.417-.375.859-.556 1.486-.723 1.77m-2.136-7.192c.5.273 1.622.713 2.126.287.504-.427.551-1.205.512-1.541" stroke="#0E0E0E" stroke-width="2" stroke-linecap="round" stroke-linejoin="round"/><path d="M79.775 27.6c-.366.049-2.286.27-2.483 1.16-.196.888 3.996 2.61 6.91 3.217 3.02.629 4.864-.353 5.496-.635" stroke="#0E0E0E" stroke-width="2" stroke-linecap="round" stroke-linejoin="round"/><path d="M82.64 26.667c.63-1.453 2.679-3.595 5.498-3.978 2.819-.383 6.597 1.097 7.973 2.385-.651.63-2.324 3.054-2.698 3.6-.793 1.158-2.218 1.906-3.693 2.691" stroke="#0E0E0E" stroke-width="2" stroke-linecap="round" stroke-linejoin="round"/><path d="M81.997 30.932c1.095-.755 3.741-2.51 5.561-3.486 1.82-.976 3.918-1.497 4.74-1.636" stroke="#0E0E0E" stroke-width="2" stroke-linecap="round" stroke-linejoin="round"/></g><defs><clipPath id="clip0_435_5879"><path fill="#fff" transform="translate(0 .378)" d="M0 0h100v100H0z"/></clipPath></defs></svg>