<svg width="100" height="101" fill="none" xmlns="http://www.w3.org/2000/svg"><path d="M85.466 56.291l-8.613 1.081c-.963.38-1.46.934-1.226 2.978.187 1.635 1.207 2.355 1.693 2.51 2.871-.32 8.654-.974 8.818-1.021.204-.058 1.168-.496 1.022-2.774-.117-1.822-1.178-2.608-1.694-2.773zM32.006 25.4h12.589l20.68 25.965L75.842 53.5c-5.358.9-16.208 2.698-16.747 2.698-.54 0-5.545-1.799-7.98-2.698L32.006 25.4zm39.469 55.086l-8.613 1.08c-.964.38-1.46.934-1.227 2.978.187 1.635 1.207 2.356 1.694 2.511 2.87-.321 8.654-.975 8.817-1.022.204-.058 1.168-.496 1.022-2.773-.117-1.822-1.178-2.609-1.694-2.774zm17.013-25.049l8.613-1.08c.515.165 1.576.951 1.693 2.773.146 2.278-.817 2.715-1.022 2.774-.163.047-2.34.387-5.21.709-.35-.112.091-1.938-.263-2.745l-1.527-.424c-1.412-.28-3.278-.606-3.204-.89.147-.554-.044-.737.92-1.117zm-5.38 23.113l-6.547.895.467 5.362c.356.807 1.19-.112 1.54 0 2.872-.321 5.048-.662 5.212-.709.204-.058 1.168-.496 1.022-2.773-.117-1.822-1.178-2.609-1.694-2.774z" fill="#399E7C"/><path d="M78.748 59.954c.147 1.553-.444 2.88-1.321 2.963-.813.077-1.587-.942-1.812-2.329l-.063-.634c-.05-1.42.52-2.584 1.34-2.662.877-.083 1.708 1.109 1.856 2.662zM64.625 84.087c.148 1.553-.444 2.88-1.32 2.963-.814.077-1.587-.942-1.813-2.329l-.062-.634c-.05-1.42.52-2.584 1.34-2.662.877-.083 1.708 1.109 1.855 2.662zM90.152 57.3c-.318-1.088-.987-1.83-1.685-1.764-.514.05-.93.527-1.157 1.227" stroke="#0E0E0E" stroke-width="2"/><path d="M89.406 58.186l3-.422v2.914l-3 .465v-2.957z" stroke="#0E0E0E" stroke-width="2" stroke-linejoin="round"/><path d="M86.16 57.15a1 1 0 11.492-1.938l-.492 1.939zm-17.67 1.654v-1h2v1h-2zm2 21.11a1 1 0 11-2 0h2zm21.867-23.252a1 1 0 11-.493 1.938l.493-1.938zM70.49 58.804v21.11h-2v-21.11h2zm16.161-3.592l5.705 1.45-.493 1.938-5.704-1.45.492-1.938z" fill="#0E0E0E"/><path d="M76.859 57.297l9.125-1.175c.877-.084 1.707 1.108 1.855 2.661.148 1.553-.444 2.88-1.32 2.963l-9.126 1.176M62.737 81.43l8.554-1.032c.877-.083 1.708 1.108 1.855 2.661.148 1.554-.444 2.88-1.32 2.964l-8.555 1.032" stroke="#0E0E0E" stroke-width="2"/><path d="M97.523 60.132l-.103-.995h.008l.095.995zm-.535-5.625l-.12-.992.013-.002.013-.001.094.995zm-8.434 2.026a1 1 0 01-.24-1.986l.24 1.986zm4.994 5.015l-.995.102-.206-1.99.995-.102.206 1.99zm3.88-2.412c-.079.008.055.042.226-.342.157-.351.254-.893.194-1.53l1.99-.19c.088.916-.036 1.814-.357 2.535-.307.688-.908 1.428-1.864 1.518l-.189-1.99zm.42-1.873c-.06-.637-.259-1.151-.479-1.467-.24-.344-.365-.286-.286-.293l-.19-1.991c.957-.091 1.686.522 2.117 1.14.451.648.742 1.506.829 2.422l-1.991.19zm-.74-1.763l-8.554 1.033-.24-1.986 8.554-1.032.24 1.985zm.517 5.627l-4.077.42-.206-1.989 4.078-.42.205 1.989z" fill="#0E0E0E"/><path d="M76.735 79.377l6.131-.735c.877-.083 1.708 1.108 1.855 2.662.148 1.553-.443 2.88-1.32 2.963l-6.666.782" stroke="#0E0E0E" stroke-width="2"/><path d="M51.276 53.426l4.41 1.629c1.786.66 3.707.867 5.592.603l14.067-1.964-9.685-2.392m.032-.036L45.222 26.43a3.077 3.077 0 00-2.375-1.12h-9.892a.77.77 0 00-.635 1.202l18.334 26.867" stroke="#0E0E0E" stroke-width="2" stroke-linecap="round" stroke-linejoin="round"/><path d="M29.777 28.78l2.357-3.021 18.811 27.348 8.149 2.866 16.803-2.248v4.493L58.7 60.298 47.798 56.7 29.777 28.78z" fill="#399E7C" stroke="#0E0E0E" stroke-width="2" stroke-linejoin="round"/><path d="M46.706 55.684L22.629 58.34" stroke="#0E0E0E" stroke-width="2" stroke-linecap="round" stroke-linejoin="round"/><path d="M71.919 94.633v2.5c0 .688-1.721 1.246-3.844 1.246-2.123 0-3.844-.558-3.844-1.247v-2.5" stroke="#0E0E0E" stroke-width="2" stroke-linecap="round"/><path d="M70.185 88.259v5.688c0 .378-.945.684-2.11.684s-2.11-.306-2.11-.684v-4.845m.16-8.854V60.065" stroke="#0E0E0E" stroke-width="2"/><path d="M24.192 78.763v2.5c0 .688-1.72 1.245-3.844 1.245-2.122 0-3.843-.557-3.843-1.246v-2.5m45.319-5.069v2.5c0 .688-1.72 1.246-3.844 1.246-2.123 0-3.844-.558-3.844-1.246v-2.5" stroke="#0E0E0E" stroke-width="2" stroke-linecap="round"/><path d="M22.458 14.578v63.499c0 .378-.944.684-2.11.684-1.165 0-2.109-.306-2.109-.684V33.55m0-17.365v14.508M2.717 12.13c.13-4.108 1.166-7.308 2.425-7.308 1.347 0 2.44 3.664 2.44 8.184s-1.093 8.184-2.44 8.184c-1.25 0-2.28-3.15-2.422-7.213m57.506.749c.338 5.103 2.157 9 4.35 9 2.434 0 4.407-4.799 4.407-10.719 0-5.92-1.973-10.719-4.407-10.719-1.704 0-3.182 2.354-3.915 5.798l-.435 3.34M7.79 21.14c.627 1.612 1.443 2.587 2.336 2.587 1.98 0 3.585-4.8 3.585-10.72 0-5.92-1.605-10.719-3.585-10.719-.893 0-1.71.976-2.338 2.59" stroke="#0E0E0E" stroke-width="2"/><path d="M5.09 4.822h3.22c1.347 0 2.44 3.664 2.44 8.184S9.656 21.19 8.31 21.19H5.09M73.034 4.822h1.636c1.617 0 2.927 3.664 2.927 8.184s-1.31 8.184-2.926 8.184h-1.637" stroke="#0E0E0E" stroke-width="2"/><path d="M10.048 2.288h4.734c1.98 0 3.586 4.8 3.586 10.72 0 5.92-1.606 10.719-3.586 10.719h-4.734" stroke="#0E0E0E" stroke-width="2"/><path d="M64.233 11.088a1 1 0 110 2v-2zm0 2H20.848v-2h43.385v2z" fill="#0E0E0E"/><path d="M64.589 2.288h5.678c2.376 0 4.301 4.8 4.301 10.72 0 5.92-1.925 10.719-4.3 10.719h-5.68" stroke="#0E0E0E" stroke-width="2"/><ellipse cx=".274" cy=".919" rx=".274" ry=".919" transform="matrix(-1 0 0 1 2.206 12.088)" stroke="#0E0E0E"/><path d="M1.921 12.088h3.37c.15 0 .273.412.273.92 0 .507-.123.918-.274.918H1.795m76.775-1.838h.704c.144 0 .26.412.26.92 0 .507-.116.918-.26.918h-.705" stroke="#0E0E0E"/><path d="M60.135 14.875V44.5m-4.219-29.752v15.583m0 9.052v-6.675m4.22 26.56V73.01c0 .377-.945.683-2.11.683s-2.11-.306-2.11-.683V58.678" stroke="#0E0E0E" stroke-width="2"/><path d="M63.447 30.336h-3.245m-3.314-.003l-8.397.093m-25.946.29h8.26m-11.436-.001h-4.364" stroke="#0E0E0E" stroke-width="2" stroke-linecap="round"/><path d="M76.86 63.672v23.241l-3.168.504V59.401" stroke="#0E0E0E" stroke-width="2" stroke-linecap="square" stroke-linejoin="round"/></svg>