<svg width="100" height="101" fill="none" xmlns="http://www.w3.org/2000/svg"><path d="M10.135 60.285v-6.11l2.1 2.673 15.751 9.355 17.565 2.864 33.794-17.851 8.973-8.02v6.015c0 2.444-1.654 4.328-2.482 4.964-8.273 4.742-26.557 15.37-33.507 19.952-6.95 4.582-18.488 1.909-23.388 0-4.137-2.26-13.04-7.122-15.56-8.496-2.52-1.375-3.215-4.137-3.246-5.346z" fill="#525252"/><path fill-rule="evenodd" clip-rule="evenodd" d="M13.272 59.763l14.108 7.758a27.124 27.124 0 0027.025-.51L85.2 48.534c4.06-2.437 3.962-8.355-.177-10.656l-14.245-7.92a27.124 27.124 0 00-27.327.564L13.027 49.12c-4.032 2.465-3.896 8.366.245 10.643zm6.404-2.566l10.548 5.727c7.794 4.287 14.98 3.119 22.582-1.5l24.668-14.888c2.675-1.625 3.233-6.175.495-7.691l-7.736-4.138c-3.593-1.99-7.007-3.837-10.98-3.92-.721-.034-2.461-.597-3.845-1.121-.447.052-.946.498-1.43.932-.414.37-.817.73-1.172.833-2.418.554-4.092 1.174-6.296 2.46L19.675 49.73c-2.736 1.596-3.245 5.748 0 7.467z" fill="#DABC2D"/><ellipse cx="50" cy="46.805" rx="5.139" ry="3.298" fill="#DABC2D"/><path d="M27.877 67.697l-14.53-8.016c-4.158-2.293-4.26-8.233-.185-10.67l30.833-18.435a27.124 27.124 0 0127.222-.357l14.08 7.923c4.107 2.312 4.197 8.195.162 10.631L55 67.166a27.123 27.123 0 01-27.122.53z" stroke="#0E0E0E" stroke-width="2" stroke-linecap="round" stroke-linejoin="round"/><path d="M88.425 43.508v6.425a6.223 6.223 0 01-2.965 4.487L54.999 72.812a27.123 27.123 0 01-27.121.53l-14.53-8.014c-2.04-1.126-3.105-3.13-3.178-5.167v-5.89" stroke="#0E0E0E" stroke-width="2" stroke-linecap="round" stroke-linejoin="round"/><path d="M52.422 32.087a23.945 23.945 0 00-6.727 2.66l-26.65 15.542c-2.638 1.538-2.59 5.367.087 6.84l9.23 5.076a23.965 23.965 0 0023.993-.517L78.11 46.04c2.579-1.567 2.503-5.336-.137-6.798l-8.593-4.76a23.944 23.944 0 00-9.755-2.928M17.273 47.11L54.22 67.182" stroke="#0E0E0E" stroke-width="2" stroke-linecap="round" stroke-linejoin="round"/><path d="M27.925 52.766l1.316-7.832 12.533 6.58-1.316 7.894 4.136-2.82" stroke="#0E0E0E" stroke-width="2" stroke-linecap="round" stroke-linejoin="round"/><path d="M41.836 51.388l2.758-1.755v7.081M29.288 44.926l2.757-1.755L44.5 49.586m12.814-14.114L52.74 38.23v-7.05l12.532 6.58v7.112l4.136-2.82m-12.094-6.579l-.768-2.294m.768 2.294l7.583 4.199" stroke="#0E0E0E" stroke-width="2" stroke-linecap="round" stroke-linejoin="round"/><path d="M65.43 37.727l2.756-1.754 1.222 6.203M52.736 31.154l2.757-1.755 12.458 6.574m-21.397-6.251l6.002 3.186m31.03 16.945l-14.24-7.864m-26.131.81l15.105 8.2" stroke="#0E0E0E" stroke-width="2" stroke-linecap="round" stroke-linejoin="round"/><ellipse cx="50.161" cy="46.899" rx="5.139" ry="3.298" stroke="#0E0E0E" stroke-width="2"/></svg>