<svg width="100" height="101" fill="none" xmlns="http://www.w3.org/2000/svg"><path d="M18.555 42.6c.211 2.336-.11 20.048-.596 28.846l20.922-4.204c0-4.438-.795-14.806-.795-20.905 0-9.226.662-23.59.795-27.795.191-6.081-4.47-8.424-5.44-8.385v5.9c-.84-.389-.943-.317-5.286-.317s-9.435.846-10.196 2.802c.309 6.89.384 21.723.596 24.058z" fill="#D45246"/><path d="M71.289 61.971L17.872 75.206l7.37 4.71L78.988 65.71l-7.7-3.738z" fill="#525252"/><path d="M23.236 80.766c-.527.357-.893 2.388-1.01 3.36l-7.641-5.183c.04-.477.183-1.644.447-2.49.263-.846 1.472-1.37 2.043-1.527l8.158 4.877c-.447.172-1.471.606-1.997.963zm57.33-15.041l-9.233-4.322 2.96-.8 9.75 4.041-3.477 1.081z" fill="#D45246"/><path d="M61.56 77.989l9.467 4.731c.7.35 1.507.42 2.257.196l17.88-5.344a1.539 1.539 0 001.051-1.848l-1.39-5.562a8.461 8.461 0 00-4.915-5.741l-11.792-4.985a4.616 4.616 0 00-2.85-.242L14.906 72.406a7.692 7.692 0 00-5.592 5.212L7.26 84.249c-.2.644.043 1.344.6 1.725l13.818 9.47a4.62 4.62 0 003.787.655l22.433-5.911a.77.77 0 00.554-.924l-1.76-7.363 26.62-7.005-1.195 7.559" stroke="#0E0E0E" stroke-width="2" stroke-linejoin="round"/><path d="M88.822 66.564l-58.82 15.332a5.385 5.385 0 00-3.89 4.004l-2.386 10.375" stroke="#0E0E0E" stroke-width="2" stroke-linejoin="round"/><path d="M24.88 79.953l60.29-15.79-8.683-3.597-59.122 14.597a3.077 3.077 0 00-2.286 2.414L14.81 79l7.474 5.085.36-1.77a3.077 3.077 0 012.236-2.361zm54.108-13.824L71.12 61.97M25.61 79.808l-8.215-4.8" stroke="#0E0E0E" stroke-linejoin="round"/><path d="M38.962 17.98c-.255 6.746-.736 21.879-.613 28.438.123 6.559.383 16.462.486 20.963M18.016 18.277c.255 6.747.736 21.88.613 28.439-.122 6.558-.358 20.155-.46 24.655" stroke="#0E0E0E" stroke-width="2" stroke-linejoin="round"/><ellipse cx="3.937" cy=".843" rx="3.937" ry=".843" transform="matrix(-1 0 0 1 31.977 17.546)" fill="#0E0E0E"/><path d="M18.543 35.307c0 1.308 4.454 2.368 9.95 2.368 5.495 0 9.95-1.06 9.95-2.368m-19.9-3.577c0 1.309 4.454 2.369 9.95 2.369 5.495 0 9.95-1.06 9.95-2.368M18.366 59.126c0 1.308 4.534 2.369 10.127 2.369 5.593 0 10.127-1.06 10.127-2.369M18.366 55.55c0 1.308 4.534 2.368 10.127 2.368 5.593 0 10.127-1.06 10.127-2.368" stroke="#0E0E0E"/><ellipse cx="10.025" cy="2.787" rx="10.025" ry="2.787" transform="matrix(-1 0 0 1 38.065 15.68)" stroke="#0E0E0E" stroke-width="2"/><path d="M28.267 21.253c5.903 0 10.688-1.514 10.688-3.382.295-4.964-2.729-7.181-4.779-8.113-.477-.216-.99.153-.99.677v4.78" stroke="#0E0E0E" stroke-width="2"/></svg>