<svg width="63" height="63" fill="none" xmlns="http://www.w3.org/2000/svg"><rect x=".806" y=".136" width="62" height="62" rx="31" fill="#EFE701"/><path d="M44.415 18.971H24.391a1 1 0 00-1 1v12.072a1 1 0 001 1h15.617a1 1 0 00.94-.657l4.407-12.072a1 1 0 00-.94-1.343z" fill="#0E0E0E"/><path d="M24.89 29.985v4.283a4 4 0 004 4h12.04" stroke="#0E0E0E" stroke-width="3"/><circle cx="27.101" cy="43.395" r="2.367" fill="#0E0E0E"/><circle cx="38.406" cy="43.395" r="2.367" fill="#0E0E0E"/><path d="M24.864 22.36l-1.8-4.582a2 2 0 00-1.862-1.268h-3.436" stroke="#0E0E0E" stroke-width="3"/></svg>