<svg width="50" height="45" fill="none" xmlns="http://www.w3.org/2000/svg"><path d="M37.883 13.475c-.015 3.5-1.47 6.659-3.836 8.943a13.052 13.052 0 01-9.175 3.677 13.12 13.12 0 01-7.735-2.535 6.654 6.654 0 003.276-.297c1.365.593 2.866.934 4.459.934a11.104 11.104 0 007.81-3.129c2.002-1.943 3.245-4.627 3.26-7.608 0-.815-.09-1.601-.258-2.358a5.4 5.4 0 01-1.592 1.765c-2.275 1.557-4.792 1.72-7.34 1.616.046-.163.091-.326.152-.504.136-.445.258-.904.41-1.364 2.047.044 4.018-.163 5.671-1.29 1.274-.875 1.91-2.759.97-4.064-.94-1.32-2.957-1.379-4.246-.504-2.274 1.557-3.078 4.256-3.867 6.94-.88 3.026-1.774 6.036-4.61 7.98-1.092.755-2.457 1.037-3.73.874-3.99-.519-5.566-5.828-5.551-9.165.015-3.5 1.47-6.659 3.837-8.942a13.116 13.116 0 019.19-3.678c2.896.015 5.566.949 7.719 2.536a6.653 6.653 0 00-3.276.296 11.142 11.142 0 00-4.458-.934 11.104 11.104 0 00-7.81 3.13c-1.987 1.927-3.246 4.626-3.246 7.592 0 .816.091 1.602.258 2.373a5.257 5.257 0 011.592-1.765c2.275-1.557 4.792-1.72 7.34-1.616-.045.163-.106.326-.151.504-.137.445-.258.905-.41 1.364-2.047-.044-4.019.163-5.672 1.29-1.274.875-1.91 2.759-.97 4.064.94 1.305 2.972 1.379 4.246.504 2.275-1.557 3.063-4.256 3.867-6.94.88-3.026 1.775-6.036 4.61-7.979a5.342 5.342 0 013.731-.875c3.974.534 5.55 5.843 5.535 9.165zM1.729 32.235h3.063c.137 0 .243.03.319.074.076.06.106.149.106.267a.323.323 0 01-.121.267.506.506 0 01-.319.09H1.729v-.698zM0 31.865v3.5c0 .533.227.8.895.8h4.352c.622 0 1.062-.103 1.335-.326.273-.222.394-.593.394-1.112 0-.608-.258-1.009-.773-1.231a.885.885 0 00.409-.37c.106-.179.167-.416.167-.683 0-.608-.182-1.023-.546-1.246-.243-.148-.637-.222-1.183-.222H.925c-.607.014-.895.252-.925.89zm1.729 2.239h3.003c.166 0 .288.03.379.089.09.06.136.178.136.341 0 .267-.167.386-.5.386H1.729v-.816zm12.208-.564c0-.296 0-.652-.167-.904-.273-.386-.834-.4-1.774-.415-.926.014-1.487.03-1.76.415-.182.252-.182.637-.167.934 0 .297 0 .653.167.905.273.37.834.415 1.76.445.94-.03 1.5-.06 1.774-.445.167-.252.167-.623.167-.935zm-5.657 0c.015-1.245.288-1.75.698-2.165.667-.682 2.062-.637 2.987-.637.956 0 2.366-.06 3.064.637.409.416.682.92.697 2.195-.015 1.246-.288 1.75-.697 2.165-.668.668-2.108.668-3.034.668-.925 0-2.365 0-3.033-.668-.409-.4-.682-.92-.682-2.195zm13.134 2.803c.47-.03.895-.133 1.198-.222.622-.208.97-.505 1.198-1.038.091-.223.137-.55.121-.964h-1.744c-.045.8-1.137.756-1.79.77-.681 0-1.516-.014-1.607-.8a5.137 5.137 0 01-.03-.534 5.2 5.2 0 01.03-.534c.091-.77.925-.8 1.608-.8.652 0 1.744-.045 1.79.77h1.743c.016-.415-.03-.74-.12-.963-.228-.52-.577-.83-1.199-1.038a4.082 4.082 0 00-1.198-.223c-1.456-.074-3.882-.222-4.261 1.513-.076.326-.122.667-.122 1.26v.03c0 .593.046.934.122 1.26.379 1.736 2.82 1.587 4.261 1.513zm11.828-5.354H36.2l1.32 2.892c.273.578.106.474.379.014l1.365-2.891h2.805v5.175h-1.637v-4.078l-1.547 3.07c-.395.815-.395.993-1.214.993-.591-.014-.712-.178-1.092-.875l-1.698-3.203v4.078h-1.638V30.99zM45.648 33.6l.03 1.23h2.366c.41 0 .546-.207.53-.622-.014-.416-.181-.623-.59-.623h-2.336v.015zm-1.714 2.565v-5.19h1.73v1.275h2.35c1.395 0 2.002.49 1.971 1.958-.015 1.468-.621 1.957-2.062 1.957h-3.989zm-18.426-.92v-3.307c0-.742.379-.95.955-.95h4.883v1.261h-4.11v.712h3.913v1.246h-3.912v.712h4.11v1.26h-4.93c-.606-.015-.91-.296-.91-.934zM1.517 39.457h4.155c1.077.03 1.501.845 1.516 1.735v3.441H5.46v-2.996c0-.712-.213-.86-.85-.86H2.593c-.637 0-.849.133-.849.86v2.996H0v-3.44c.015-.905.44-1.706 1.517-1.736zm18.805 2.981l2.139-.015c-1.183-2.284-.895-2.417-2.139.015zm1.062-2.981c1.076 0 1.304.074 1.895 1.009l2.245 4.167h-1.896l-.53-.86H19.67l-.53.86h-1.896l2.244-4.167c.607-.95.819-1.009 1.896-1.009zm5.489-.015H28.6v1.81h3.155v-1.81h1.729v5.176h-1.73V42.6H28.6v2.017h-1.728v-5.176zm16.424 1.35v-1.35H50v1.35h-2.487v3.84h-1.729v-3.84h-2.487zm-27.389-1.32v5.16H14.15v-3.81h-2.214c-.227 0-.349.148-.38.34l-.196 2.388c-.06.756-.713 1.142-1.44 1.142-.395 0-.76-.03-1.108-.074V43.43h.44c.212 0 .394-.118.41-.326l.257-2.877c.03-.49.319-.771.91-.771h5.08m19.517 4.257v-3.307c0-.741.38-.949.955-.949h4.884v1.26h-4.11v.712h3.913v1.246h-3.913v.712h4.11v1.26h-4.93c-.62-.014-.909-.311-.909-.934z" opacity=".4" fill="#fff"/></svg>