<svg width="2560" height="448" fill="none" xmlns="http://www.w3.org/2000/svg"><mask id="mask0_2300_11487" style="mask-type:alpha" maskUnits="userSpaceOnUse" x="0" y="0" width="2560" height="451"><path fill="url(#paint0_linear_2300_11487)" d="M0 .412h2560v450H0z"/></mask><g mask="url(#mask0_2300_11487)"><path fill="url(#paint1_linear_2300_11487)" d="M0 .412h2560v462H0z"/><g filter="url(#filter0_f_2300_11487)"><ellipse cx="578.813" cy="425.766" rx="108.621" ry="303.291" transform="rotate(41.372 578.813 425.766)" fill="url(#paint2_linear_2300_11487)"/></g><g filter="url(#filter1_f_2300_11487)"><ellipse cx="1732.89" cy="92.973" rx="96.661" ry="303.291" transform="rotate(-135 1732.89 92.973)" fill="url(#paint3_linear_2300_11487)"/></g><path fill-rule="evenodd" clip-rule="evenodd" d="M1335.97 68.012c-4.88 4.875-7.66 13.928-13.23 18.106-2.79 2.09-8.36 6.268-12.54 6.268-5.57 0-11.14-4.875-18.11-6.267-7.66-1.393-13.92.696-22.28 0 0-6.268 2.79-10.447 2.09-17.41 7.66-2.09 10.45-12.536 17.41-17.41 4.18-2.786 23.68-11.143 28.55-9.75 8.36 1.393 11.84 20.892 18.11 26.463zm-715.992.989c-3.226-3.025-9.087-4.625-11.88-8.111-1.396-1.743-4.189-5.229-4.275-7.908-.114-3.571 2.897-7.243 3.647-11.736.736-4.94-.732-8.915-.457-14.286 4.018-.129 6.754 1.571 11.204.982 1.496 4.868 8.25 6.44 11.518 10.804 1.872 2.622 7.629 14.95 6.836 18.104-.721 5.386-13.15 8.019-16.593 12.151zM1419.51-4.61c-4.88 4.874-7.67 13.927-13.24 18.106-2.78 2.089-8.35 6.267-12.53 6.267-5.57 0-11.14-4.874-18.11-6.267-7.66-1.393-13.93.696-22.28 0 0-6.268 2.78-10.446 2.09-17.41 7.66-2.09 10.44-12.535 17.41-17.41 4.17-2.786 23.67-11.143 28.55-9.75 8.36 1.393 11.84 20.892 18.11 26.463zM1300.45 97.955c-4.88 12.535-20.9 36.909-40.39 31.338-7.66-2.089-6.97-11.142-6.97-22.285 6.27-13.928 34.13-21.588 47.36-9.053zm83.53-72.623c-4.87 12.536-20.89 36.91-40.39 31.338-7.66-2.089-6.96-11.142-6.96-22.284 6.27-13.928 34.12-21.589 47.35-9.054zM1298.01-.389c-18.81 11.143-50.84 3.482-59.89-11.839v-13.928c6.26-5.57 12.53-14.624 21.59-16.017 4.17-.696 21.58 2.786 24.37 4.179 13.93 5.57 12.53 22.98 13.93 37.605zm-66.86-18.803c6.96 24.374-17.41 35.516-30.65 25.07 1.4-10.446 3.49-27.16 9.75-35.516 8.36 2.786 13.93 6.964 20.9 10.446zm49.8 179.824c-6.97-.696-13.24-2.786-20.9-4.178 1.4-7.661 2.09-15.321 5.57-20.892 9.75.696 22.99-8.357 25.08 1.393 1.39 8.356-4.88 18.106-9.75 23.677zM800.631 374.661c-9.36-.936-17.783-3.744-28.079-5.616 1.872-10.295 2.808-20.591 7.488-28.079 13.103.936 30.887-11.232 33.695 1.872 1.872 11.232-6.552 24.336-13.104 31.823zm60.446 84.122c-12.668-1.267-24.069-5.068-38.004-7.601 2.534-13.935 3.801-27.87 10.135-38.004 17.735 1.266 41.804-15.202 45.605 2.533 2.533 15.202-8.868 32.937-17.736 43.072zM1096.05-12.23c.7 3.482 2.79 5.572 4.18 8.357-4.87 12.535-11.14 23.678-25.07 14.625-2.09-1.393-2.09-2.786-4.87-4.875-9.75-6.964-26.47-7.66-32.73-13.928 3.48-13.232 14.62-18.106 30.64-18.106 8.35 4.874 15.32 11.838 27.85 13.928zm51.01 96.9c-1.84-3.04-9.86-6.81-10.86-11.632-1.23-5.477 9.8-13.895 14.51-19.296 5.79-6.53 13.37-12.22 16.77-17.149 3.82-5.82 6.41-17.117 10.11-19.19 4.35-2.308 19.03 3.504 23.93-3.443 11.82 6.101 5.7 26.076 6.38 36.192-11.52 15.259-35.08 34.114-60.84 34.518zm135.28 83.622c4.18 6.964.7 13.928-4.87 17.41-11.15-4.874-28.56-2.785-38.3-9.053 0-9.053 9.05-9.749 13.92-14.624 10.45.696 19.5 3.482 29.25 6.267zM798.446 388.596c7.6 12.668 1.267 25.336-8.868 31.67-20.269-8.868-51.939-5.067-69.674-16.468 0-16.469 16.468-17.736 25.336-26.603 19.002 1.267 35.47 6.334 53.206 11.401z" fill="#fff" fill-opacity=".04"/><path fill-rule="evenodd" clip-rule="evenodd" d="M1256.92 21.199c-8.36 5.571-10.44 16.714-13.23 28.552-6.27.697-11.84 1.393-16.02 4.179-7.66-7.66-25.07-16.714-14.62-31.338.69-1.393 18.8-18.107 23.68-18.107 3.48-.696 7.66 2.786 9.75 2.786 3.48 2.09 7.66 8.357 10.44 13.928zm30.64-6.965c-.7 18.106-6.96 36.212-29.95 32.034 0-4.875-2.08-6.964-2.78-10.446 2.09-9.75 17.41-16.017 24.37-22.981.7-1.393 6.27.696 8.36 1.393zm-43.18 81.729c-1.06 27.681-10.65 55.363-45.78 48.975 0-7.453-3.19-10.647-4.26-15.97 3.19-14.906 26.62-24.488 37.26-35.135 1.07-2.13 9.59 1.065 12.78 2.13zm-234.81-53.019c21.3-3.06 43.79.388 43.82 28.122-5.69 1.043-7.68 3.93-11.6 5.487-11.83-.354-22.43-16.907-32.06-23.55-1.77-.516-.52-7.47-.16-10.059zM788.264-.422c.856 21.497-4.883 43.511-32.474 40.698-.452-5.77-3.119-8.05-4.266-12.106 1.568-11.735 19.121-20.576 26.718-29.465.695-1.714 7.484.242 10.022.873zm248.716 156.958c-1.06 27.682-10.65 55.363-45.781 48.975 0-7.453-3.194-10.647-4.259-15.97 3.194-14.905 26.62-24.488 37.26-35.134 1.07-2.13 9.59 1.064 12.78 2.129zm153.38-66.749c-2.1 4.457.03 10.353.61 16.066-14.2 14.002-31.97 7.824-39.84-7.845 4.84-9.15 20.62-12.616 32.36-19.069 3.04-1.836 5.6-4.982 8.22-5.927 7.21-2.597 13.92 1.645 18.61 4.395-.2 9.698-9.61 12.35-19.96 12.38zM974.225 63.362c-3.272-1.98-7.999-.817-12.459-.834-9.661-12.104-3.447-25.33 9.296-30.135 6.673 4.485 8.069 16.952 12.099 26.543 1.171 2.496 3.393 4.735 3.91 6.836 1.421 5.777-2.401 10.616-4.906 14.017-7.474-.946-8.758-8.428-7.94-16.427zm202.915 71.905c-7.33 6.345-18.47 10.36-23.13 17.963-9.04-.442-18.09-.883-25.22-4.235.55-4.639-1.34-9.88-.13-14.756.78-3.984 6.94-13.605 10.21-14.786 1.97-.709 25.06-2.37 30.82-.748 7.79 3.116 8.84 10.14 7.45 16.562zM924.249 7.558c-5.697 4.928-14.347 8.046-17.967 13.95-7.023-.342-14.046-.685-19.583-3.288.426-3.603-1.042-7.673-.107-11.46.609-3.094 5.389-10.566 7.933-11.484 1.527-.55 19.459-1.84 23.938-.58 6.046 2.42 6.863 7.874 5.786 12.862zm407.361-28.299c3.48 9.053 3.48 20.892 9.05 27.856-3.48 8.356-6.96 16.713-12.53 22.284-4.18-2.089-9.75-2.089-13.93-4.875-3.48-2.089-10.45-11.142-10.45-14.624 0-2.09 6.27-24.374 9.75-29.249 5.57-6.267 12.54-4.875 18.11-1.392z" fill="#fff" fill-opacity=".04"/><path fill-rule="evenodd" clip-rule="evenodd" d="M1053.52 186.771c3.48 9.054 3.48 20.892 9.06 27.856-3.49 8.357-6.97 16.714-12.54 22.285-4.18-2.089-9.75-2.089-13.93-4.875-3.48-2.089-10.44-11.142-10.44-14.624 0-2.089 6.26-24.374 9.75-29.249 5.57-6.267 12.53-4.875 18.1-1.393zm207.82 130.005c2.25 5.856 2.25 13.515 5.85 18.02-2.25 5.406-4.5 10.812-8.11 14.416-2.7-1.352-6.3-1.352-9.01-3.154-2.25-1.351-6.75-7.208-6.75-9.46 0-1.352 4.05-15.767 6.3-18.921 3.61-4.054 8.11-3.153 11.72-.901zM1071.9 46.621c-1.42-3.93-2.6-7.206-4.01-11.137 6.81-9.858 14.74-18.641 28.68-25.147 2.68 1.257 4.7 2.75 7.61 4.662-1.28 10.825 2.66 27.912-8.66 33.473-7.39 4.144-16.07.61-23.62-1.85zm76.73 138.908c-6.03 5.874-12.95 11.328-20.1 16.128-4.69-2.75-9.39-5.5-11.04-10.086-1.23-5.477 5.58-15.335-2.61-25.71 8.96-12.113 22.99-6.065 32.14-1.22 1.05 7.024.55 13.865 1.61 20.888zm-162.636-43.048c-4.736-1.832-9.466-4.258-13.896-6.979.331-3.266.662-6.531 2.764-8.59 2.696-2.052 9.815-.79 13.455-7.885 8.896 1.875 9.098 11.09 8.736 17.328-3.59 2.34-7.469 3.786-11.059 6.126zm371.366 151.085c-3.9 3.8-8.38 7.328-13 10.433-3.04-1.779-6.08-3.558-7.14-6.524-.8-3.544 3.6-9.921-1.69-16.632 5.79-7.836 14.87-3.923 20.79-.789.68 4.543.36 8.969 1.04 13.512zm-244.3-112.241c-4.3 4.51-5.87 12.478-12.84 15.731-8.7 4.617-22.62 2.971-31.19 3.84-5.5-9.118-4.04-21.49-11.15-32.993-5.51-9.118-18.17-13.437-21.24-21.954 3.28-1.181 7.5.259 10.54-1.577 4.58-1.653 6.21-7.42 10.32-10.383 5.42-3.436 18.94-9.051 27.51-9.919 5.06-.343 9.15 4.844 15.99 5.339 6.19.731 12.51-2.285 16.96-.191-.26 7.496-1.41 14.573-8.8 18.718-1.28 10.825-3.03 20.339 3.9 33.389zm199.31 91.493c-2.78 2.918-3.8 8.073-8.31 10.177-5.62 2.986-14.63 1.922-20.17 2.484-3.56-5.899-2.62-13.902-7.22-21.343-3.56-5.898-11.75-8.692-13.73-14.202 2.11-.764 4.84.168 6.81-1.02 2.97-1.069 4.02-4.8 6.68-6.717 3.51-2.223 12.25-5.855 17.8-6.417 3.27-.221 5.92 3.134 10.34 3.455 4 .473 8.09-1.479 10.97-.124-.17 4.849-.91 9.427-5.69 12.108-.83 7.003-1.96 13.158 2.52 21.599zm-104.2-98.412c-13.23-1.393-26.47-9.053-32.73-19.499 8.35-21.589 39.69.696 32.73 19.499zM925.865 58.21c-13.232-1.393-26.464-9.053-32.731-19.5 8.357-21.588 39.695.697 32.731 19.5zm163.155 58.487c-1.44 4.221-9.46.45-13.21.321-20.78 6.011-27.27 29.078-48.13 22.535 2.17-10.406 6.59-18.664 18.28-27.318 2.8-2.491 6.02-5.874 8.41-7.474 5.24-1.889 11.48 1.044 15.77-3.466 8.63 1.333 14.26 6.703 18.88 15.402zm155.36 75.815v13.928c-9.05-2.089-22.28-5.571-28.55-13.232 1.39-15.321 20.19-2.785 28.55-.696zm-266.721 11.839c7.661 16.017-2.785 31.338-13.231 38.302-9.053 1.392-13.232-3.482-20.196-6.964-8.357-4.179-13.928-3.482-16.713-11.839 6.267-18.803 29.248-25.071 50.14-19.499zm-7.655 53.623c-2.089-21.588 20.196-25.766 32.736-35.516 2.78 4.178 6.96 11.142 6.96 16.017-.7 13.928-27.16 15.321-39.696 19.499zm660.856 75.168c-2.08-21.588 20.2-25.767 32.74-35.516 2.78 4.178 6.96 11.142 6.96 16.017-.7 13.928-27.16 15.321-39.7 19.499z" fill="#fff" fill-opacity=".04"/><path fill-rule="evenodd" clip-rule="evenodd" d="M1265.28 246.833c-5.57 10.446-14.62 17.41-23.68 24.374-14.62 1.393-24.37-2.089-28.55-11.839 10.45-11.142 32.03-10.446 43.87-20.196 3.49 2.09 6.27 3.482 8.36 7.661zm-39.71 36.211c-.69 9.75-4.87 15.321-10.44 20.196-20.2 1.393-29.95-7.66-46.66-9.75-8.36-16.017 2.79-39.694 14.62-44.569 3.49-1.393 20.2 10.446 22.29 13.231 2.09 2.786 2.78 7.661 5.57 9.75 5.57 2.786 10.45 6.964 14.62 11.142zm233.96-10.137c-.45 6.307-3.15 9.911-6.75 13.064-13.07.901-19.37-4.955-30.19-6.307-5.4-10.361 1.81-25.678 9.46-28.832 2.26-.901 13.07 6.758 14.42 8.56 1.35 1.802 1.8 4.955 3.6 6.307 3.61 1.802 6.76 4.505 9.46 7.208zm-439.38-7.272v14.624c-16.02 9.053-36.217-4.875-46.663-13.232 3.482-9.053 18.803-6.267 27.163-10.445 4.17-2.786 15.32 9.053 19.5 9.053zm744.24 81.219v14.625c-16.02 9.053-36.22-4.875-46.66-13.232 3.48-9.053 18.8-6.267 27.16-10.446 4.18-2.785 15.32 9.053 19.5 9.053zm-609.14-69.382c3.48.697 1.39-4.875 5.57-4.178 3.48 6.964-4.88 12.535-6.27 20.195-.7 3.482 1.39 8.357 0 11.839-1.39 5.571-9.05 7.661-11.84 11.839-12.53-9.75-16.02-36.213-6.96-50.837.69-.697 6.96 0 7.66 0 6.27 1.393 6.27 9.053 11.84 11.142zm-232.601 39.696c-22.285-.696-34.123-11.142-45.266-22.981 4.179-4.178 6.268-14.624 11.839-18.106 2.786-1.393 11.142-3.482 13.928-2.786 4.178.696 6.268 9.053 9.053 13.928 4.875 7.66 13.928 17.41 10.446 29.945zm55.02 8.355c-7.661 1.393-16.018 2.09-22.982 0-5.571-2.089-7.66-8.356-12.535-10.446 2.09-13.231 18.107-31.338 27.856-36.909h7.661c6.267 1.393 14.624 9.053 14.624 17.41 0 9.75-11.839 20.892-14.624 29.945zm-16.714 27.163c-2.089 5.571-6.964 10.446-10.446 16.713-3.482 5.571-5.571 13.232-9.75 16.714-6.964 6.267-27.159 15.321-28.552-.697 0-3.482 2.089-5.571 2.786-9.053 2.089-11.142-.697-26.463 4.178-34.82 6.268-6.267 16.714-6.964 27.16-9.053 5.571 5.571 9.749 13.232 14.624 20.196zm16.713 11.837c4.179 9.75 9.75 18.107 11.839 29.946-4.178 3.482-6.964 9.053-12.535 11.838-9.75-4.178-25.767-18.802-17.41-34.82 2.786-5.571 9.053-7.66 18.106-6.964zm215.872 66.159c-1.39-18.803 9.06-29.945 18.11-34.82 22.28 9.75 4.18 51.534-18.11 34.82zm-283.423 4.177c-10.446-2.785-16.017-10.446-23.678-16.017v-11.839c6.964-2.089 11.839-6.964 18.107-9.749 15.321 4.178 20.195 29.248 5.571 37.605zm61.98-20.195c-.697 4.178 0 5.571-.696 12.535-9.75 6.267-27.857 2.089-37.606.696-7.661-5.571-11.839-14.624-15.321-24.374 12.535 4.179 20.892-6.267 29.945-6.267 9.75 0 16.017 11.838 23.678 17.41zm27.848-8.357c1.395 6.964 1.395 18.803 0 26.463-4.178-.696-10.446 0-14.624-1.393 1.393-12.535 3.482-22.981 14.624-25.07zm96.795 13.928c.7 5.572 4.18 9.054 6.27 13.928 0 13.232-4.18 23.678-9.05 32.035-33.43 3.482-39-21.589-50.84-40.391-.7-15.321 16.71-13.232 32.03-15.321 9.75-1.393 13.24 10.446 21.59 9.749zm-91.22-10.445c6.27 3.482 8.36 11.839 17.41 12.536.7 4.178-1.39 6.267-4.18 8.356-11.14 0-16.02-6.964-13.23-20.892zm148.33 18.106c-8.35 15.321-22.98 25.071-36.91 34.82-8.35-4.874-8.35-20.195-2.78-30.641 4.87-9.053 17.41-13.232 22.28-18.107 6.27 3.482 11.84 8.357 17.41 13.928zm34.12 9.751c.7 4.178-4.17 2.785-4.87 6.267-2.79 6.964-2.09 16.017-6.27 21.589-7.66-2.09-15.32-9.75-22.28-15.321 0-15.321 5.57-23.678 24.37-21.589 3.48 2.786 7.66 4.875 9.05 9.054zm-223.534-.002c-2.089 9.053-6.964 21.588-6.267 36.212-17.41-4.178-36.909-6.964-46.659-18.106-1.393-27.16 35.516-18.106 52.926-18.106zm65.464.696c13.92 34.82-27.86 57.105-59.894 46.659.696-9.053-2.786-23.677-.697-32.034 4.875-20.892 37.601-13.928 60.591-14.625zm133-231.204c2.09 6.268 6.97 13.232 4.88 20.892-.7 3.482-10.45 11.839-14.63 13.928-4.17 2.089-20.89 7.661-27.16 6.964-4.87-.696-20.19-12.535-22.98-17.41-2.78-4.875-2.09-12.535-4.18-18.106 15.33-10.446 42.48-10.446 64.07-6.268zm221.24 104.039c1.35 4.054 4.51 8.559 3.16 13.514-.45 2.253-6.76 7.659-9.46 9.01-2.71 1.352-13.52 4.956-17.57 4.505-3.16-.45-13.07-8.109-14.87-11.262-1.8-3.154-1.35-8.109-2.7-11.713 9.91-6.757 27.48-6.757 41.44-4.054z" fill="#fff" fill-opacity=".04"/><path d="M1117.8 257.207l-16.27-7.698-11.5 20.576s5.35 21.888 11.5 20.577c6.15-1.312 18.64-4.358 19.36-6.052.54-1.252 1.72-10.396 2.46-17.773.4-4.066-1.85-7.883-5.55-9.63zm16.71 64.319l-13.62-27.233s-19.46 4.438-16.64 15.735c2.83 11.296 8.53 22.089 8.78 23.299.24 1.211 14.42-7.363 21.48-11.801zm25.72 3.631c2.62-6.455 0-12.81 9.68-20.879 9.69-8.069 44.79 12.407 44.79 12.407l3.63 39.337-32.68 1.815v-14.524l-25.42-18.156zm-55.98 32.68c-3.33-15.23 1.21-35.403-9.98-38.126-11.2-2.724-17.55 11.801-17.55 11.801l-15.13 39.64 28.44 11.498 14.22-24.813zm-127.693-3.631l-3.631-16.945h44.174l39.04 20.576-24.81 38.733c-8.27-.707-25.24-2.119-26.93-2.119-1.7 0-5.754-21.585-7.57-32.377l-20.273-7.868zm46.293-22.694l33.29-27.234s3.55-11.379 9.68-13.616c9.24-3.373 19.67 15.734 19.67 15.734l-16.64 13.315-12.71 23.602-33.29-11.801zm10.9-27.234c-7.97-4.539-25-13.616-29.35-13.616l-20.581 39.337 24.811 1.513s33.09-22.695 25.12-27.234zm0-13.616c-.81-8.574-2.42-26.326-2.42-28.747 0 0 9.63-15.502 19.66-16.945 7.13-1.025 17.86 4.539 17.86 4.539s9.33-4.824 13.92-1.816c6.4 4.2-3.03 19.366-3.03 19.366l-26.32 23.603h-19.67zm-143.735 30.864s-6.618-17.197-15.735-17.248c-11.499-.064-11.196 27.234-11.196 27.234l21.484-1.513 5.447-8.473zm-19.366 18.156l-24.813-2.421c-8.246-.804-30.266 26.293-40.245 39.942l19.668 21.485c12.003 1.311 36.372 3.873 37.825 3.631 1.452-.242 5.648-41.859 7.565-62.637z" fill="#fff" fill-opacity=".04"/><path fill-rule="evenodd" clip-rule="evenodd" d="M1134.07 112.305c-3.27 1.181-4.22-1.44-4.35 2.308-12.63 6.034-21.49 4.046-31.6 4.732-3.6-12.029-11.78-22.404-18.36-30.395-1.6-2.384-4.04-2.986-4.1-5.188-1.94-7.442 5.69-10.932 3.51-19.03 8.1-2.178 16.19-4.357 22.62-2.97 11.64 7.647 27.86 13.642 38.53 26.82 2.97 4.114-.02 8.152 1.4 12.082-4.77 3.2-8.65 6.819-7.65 11.641zm-12.29-52.574c.31-5.294-8.93 3.962-14.44-5.157-1.84-3.04-2.05-11.845-.61-16.066 2.77-12.844 16.68-29.702 19.09-39.453 11.37-3.36 11.52-15.26 24.08-15.343 9.69.205 16.98 10.162 18.62 22.899 1.63 12.737-10.14 27.34-13.25 35.126-12.87 5.378-21.51 12.197-33.49 17.994zm121.9 151.584c1.4 7.661 1.4 16.017-.69 22.285-.7 0-.7-1.393-.7-2.089-1.39 2.089-1.39 4.875-1.39 8.357-7.66 4.178-16.71 5.571-24.38 9.053-4.17-2.089-9.74-2.786-12.53-6.268-1.39-3.482 2.79-2.089 2.09-4.875-2.09-5.571-2.79-11.838-4.88-17.41 2.79-4.178 3.49-11.838 6.27-16.017 16.02-2.089 22.98 5.571 36.21 6.964z" fill="#fff" fill-opacity=".04"/><path fill-rule="evenodd" clip-rule="evenodd" d="M1215.13 183.461c-1.39 9.749-11.84 9.749-16.02 16.017 1.39 13.928-7.66 23.677-2.78 31.338-4.88 5.571-15.33 6.267-20.9 10.446-6.96-13.232 0-31.338 2.09-45.963 2.79-.696 4.18-2.785 6.27-4.178 1.39-2.786-.7-3.482.7-5.571 4.17-10.446 20.19-4.875 30.64-2.089zM959.551 262.85c-1.393 20.892-14.625 37.606-27.856 48.748-6.268-7.66-10.446-17.41-16.018-25.07 0-11.839-6.267-26.463 1.393-32.034 2.786-2.09 11.143-4.875 14.625-4.875 7.66-.697 20.195 10.446 27.856 13.231zm559.299 67.83c-.94 14.181-9.93 25.526-18.91 33.089-4.25-5.2-7.09-11.818-10.87-17.017 0-8.036-4.25-17.963.95-21.745 1.89-1.418 7.56-3.309 9.92-3.309 5.2-.472 13.71 7.091 18.91 8.982zm-617.79 1.808c6.267 6.964 11.142 20.892 9.749 31.338-.696 4.178-6.964 19.499-9.749 23.677-4.875 6.964-13.232 11.143-16.018 16.714-2.785-4.179-3.481-9.053-5.571-14.625-1.392-4.178-5.571-8.356-6.267-13.231-1.393-12.535 4.875-26.463 6.964-38.302 5.571-2.786 10.446-6.964 20.892-5.571zm265.33 6.964c-8.36 15.321 9.05 18.803 9.75 32.034-5.57 10.446-13.23 11.143-29.25 13.232-11.14 1.393-32.73 2.785-36.21-6.964-3.49-8.357 6.26-26.463 4.87-37.606 9.75-5.571 21.59-9.053 32.04-13.928 6.96 4.179 13.92 8.357 18.8 13.232zm29.24 47.357c3.48 19.499-11.14 41.088-29.94 37.606-10.45-2.09-22.29-18.107-26.47-29.249 5.57-4.875 15.32-4.875 24.38-7.661 9.05-2.089 22.28-7.66 32.03-.696zm-698.281 53.705c-11.032-1.57-16.452-7.968-27.483-9.538-11.233-10.04-14.1-29.44-1.698-42.447 6.5-1.185 12.408-3.158 20.188-3.458 7.194 8.762 10.159 27.472 15.582 38.795 1.48 4.431-6.001 12.511-6.589 16.648zm-2.149 34.867c-2.954.986-6.6-3.05-10.047-3.54-.889-3.644-.594-5.712-1.679-7.977-3.254-6.793-20.885-11.413-19.904-18.307 1.374-9.652 26.295-1.886 30.434 3.627.104 9.159.995 17.727 1.196 26.197zm-56.728-1.74c-1.283-5.81-.106-14.083-1.291-20.583 11.225-4.733 22.948 1.859 28.074 10.326-4.131 9.26-16.146 9.661-26.783 10.257zm-9.193-63.917c8.372.488 14.479 2.06 17.337 6.687 2.074 10.143 9.868 34.465-11.41 25.81-6.505-8.663-20.498-24.02-5.927-32.497zm-40.09-9.916c2.164-5.32 5.707-10.443 9.053-14.187 14.675.681 19.888-11.239 33.972-11.345 7.093 4.527 15.17 7.083 13.107 16.637-5.317 2.761-9.451 7.096-15.751 11.827-3.938 2.957-12.108 10.939-16.343 11.039-8.371-.487-14.582-11.219-24.038-13.971zm12.791-20.69c1.175-13.198 6.285-34.277 19.384-32.413 4.137.589 5.617 5.02 11.034 6.494-.687 4.827-3.049 6.601-3.243 12.904-10.241 2.763-15.16 12.614-27.175 13.015zM36.154 50.467c2.245-9.135 6.212-17.079 9.515-27.008 9.93 3.303 19.991 5.68 26.745 11.369-2.773 12.84 6.768 32.162-6.6 33.095-11.384.271-23.17-9.915-29.66-17.456zm-91.798 47.992c3.039-12.364 8.407-23.116 12.879-36.555 13.439 4.472 27.056 7.69 36.197 15.388-3.752 17.38 9.16 43.529-8.933 44.793-15.407.367-31.36-13.419-40.143-23.626zm433.21 298.99c-3.546.199-5.908 1.973-8.862 2.96-11.724-6.593-21.872-14.368-10.947-26.881 1.673-1.872 3.052-1.676 5.513-4.14 8.268-8.671 11.312-25.12 18.4-30.442 12.609 5.312 15.866 17.03 13.609 32.887-6.003 7.587-13.879 13.5-17.713 25.616zm-103.119 36.845c3.268-1.39 8.131-8.8 13.046-9.109 5.596-.45 12.376 11.656 17.059 17.085 5.648 6.652 10.215 14.95 14.615 19.015 5.224 4.606 16.043 8.762 17.574 12.711 1.673 4.632-6.149 18.347.039 24.175-7.706 10.845-26.619 1.968-36.731 1.222-13.483-13.56-28.831-39.536-25.602-65.099zM22.666 46.34C9.053 52.08-2.596 44.025-7.44 33.1 4.196 14.281 4.895-17.609 18.68-33.56c16.305 2.32 15.239 18.803 22.769 28.83-3.931 18.635-11.268 34.225-18.783 51.07zm312.46 257.719c.028 21.514-6.552 43.292-34.015 39.42-.23-5.783-2.807-8.163-3.798-12.262 2.018-11.665 19.899-19.825 27.832-28.416.761-1.685 7.469.531 9.981 1.258zm74.113-212.993c-21.404-2.181-42.39-10.964-35.718-37.884 5.777.365 8.409-1.954 12.587-2.518 11.397 3.206 17.676 21.83 25.407 30.603 1.598.93-1.294 7.375-2.276 9.799zM218.806 315.189c-27.256-4.954-53.311-18.341-42.037-52.225 7.378 1.05 10.99-1.662 16.411-1.966 14.307 5.262 20.493 29.801 29.534 41.842 1.958 1.354-2.404 9.337-3.908 12.349zm44.475 161.252c-4.117-2.702-10.254-1.428-15.992-1.66-11.862-16.03-3.242-32.755 13.38-38.339 8.376 6.085 9.585 22.193 14.32 34.724 1.389 3.268 4.142 6.252 4.708 8.98 1.557 7.5-3.589 13.547-6.973 17.806-9.572-1.57-10.871-11.258-9.443-21.511zm56.611-210.255c2.421-2.961 1.935-7.804 2.58-12.217 13.345-7.86 25.563.156 28.526 13.448-5.381 5.975-17.92 5.601-27.983 8.24-2.637.808-5.166 2.692-7.319 2.907-5.919.593-10.172-3.872-13.186-6.832 1.99-7.265 9.578-7.482 17.382-5.546zm-99.776 190.765c-5.249-8.157-7.654-19.749-14.525-25.435 1.712-8.89 3.423-17.78 7.745-24.368 4.516 1.197 9.971.065 14.628 1.943 3.834 1.338 12.493 8.787 13.2 12.197.425 2.045-1.183 25.139-3.602 30.619-4.181 7.269-11.283 7.321-17.446 5.044zM382.18 224.57c-4.077-6.334-5.945-15.337-11.281-19.753 1.329-6.905 2.658-13.809 6.015-18.925 3.507.93 7.744.05 11.361 1.509 2.978 1.039 9.702 6.825 10.252 9.472.329 1.589-.92 19.524-2.798 23.781-3.248 5.645-8.763 5.685-13.549 3.916zm10.257 208.03c9.622 1.223 14.844-7.564 23.617-9.171 5.709 7.026 17.489 28.145 19.755 35.691-3.819 2.689-6.459 7.596-10.892 9.955-3.489 2.077-1.744 11.291-4.811 9.641-3.517-5.307-28.607-15.575-31.25-20.951-2.88-7.876-2.125-21.908 3.581-25.165z" fill="#fff" fill-opacity=".04"/><path fill-rule="evenodd" clip-rule="evenodd" d="M186.541 327.306c-9.453 2.172-21.174.504-28.853 5.038-7.783-4.624-15.566-9.249-20.297-15.549 2.657-3.843 3.442-9.358 6.789-13.103 2.559-3.153 12.503-8.772 15.95-8.281 2.068.294 23.248 9.639 27.583 13.773 5.421 6.399 3.061 13.097-1.172 18.122zm136.163 37.941l11.592-2.406c8.8 8.131 16.378 17.227 20.855 31.945-1.621 2.47-3.384 4.258-5.686 6.87-10.537-2.792-28.009-1.299-31.92-13.29-3.062-7.899 1.66-15.992 5.159-23.119zm-148.331 56.388c-4.966-6.793-9.392-14.409-13.136-22.167 3.384-4.258 6.768-8.517 11.541-9.507 5.596-.451 14.396 7.68 25.821 1.042 10.729 10.575 2.766 23.608-3.32 31.983-7.102.052-13.804-1.402-20.906-1.351zm65.53-154.944c2.482-4.431 5.55-8.772 8.868-12.774 3.186.788 6.373 1.576 8.115 3.946 1.652 2.958-.601 9.829 5.91 14.432-3.109 8.544-12.261 7.445-18.385 6.208-1.811-3.884-2.696-7.928-4.508-11.812zm-56.357 120.324c-3.859-4.889-11.527-7.565-13.766-14.924-3.345-9.263.245-22.811.592-31.418 9.804-4.168 21.846-.977 34.235-6.394 9.804-4.168 15.863-16.094 24.728-17.934.707 3.409-1.313 7.385.077 10.652.99 4.774 6.471 7.192 8.825 11.682 2.638 5.854 6.292 20.032 5.944 28.639-.373 5.056-6.085 8.375-7.539 15.078-1.595 6.021.502 12.698-2.2 16.815-7.385-1.312-14.229-3.448-17.291-11.347-10.537-2.792-19.71-5.867-33.605-.849zm148.26-167.981c3.243-12.903 12.691-24.924 23.916-29.657 20.196 11.315-6.282 39.201-23.916 29.657zm-80.891 153.29c-3.975-2.02.888-9.431 1.544-13.123-3.023-21.421-24.946-31.096-15.528-50.832 9.996 3.616 17.548 9.161 24.47 21.949 2.071 3.126 4.966 6.793 6.214 9.379 1.132 5.455-2.65 11.218 1.209 16.107-2.534 8.35-8.645 13.175-17.909 16.52zm-71.09-122.601c-16.936 5.328-30.633-7.173-36.056-18.496-.103-9.159 5.312-12.609 9.74-19.013 5.314-7.685 5.41-13.298 14.076-14.879 17.732 8.854 20.699 32.489 12.24 52.388zm-52.01-15.133c21.668.973 22.665 23.624 30.551 37.408-4.529 2.169-12.012 5.325-16.839 4.638-13.691-2.652-11.341-29.047-13.712-42.046zM66.99 484.079c-9.555-2.063-14.482-6.984-18.523-13.187 1.466-20.19 11.803-28.567 16.226-44.82 17.035-6.017 38.906 8.35 42.065 20.758.888 3.643-13.187 18.522-16.24 20.198-3.052 1.676-7.976 1.679-10.437 4.142-3.543 5.124-8.366 9.361-13.091 12.909zm46.177-200.927l-14.478-2.06c-6.707-17.133 9.927-35.165 19.673-44.33 8.472 4.723 3.556 19.499 6.515 28.361 2.169 4.529-11.121 13.892-11.71 18.029zM82.414 415.238c-1.18 3.349 4.63 2.066 3.352 6.104-7.385 2.467-11.723-6.592-19.111-9.05-3.35-1.18-8.47.202-11.72-1.668-5.32-2.164-6.31-10.042-10.054-13.388 11.419-11.037 38.108-10.756 51.311.267.592.788-.98 6.895-1.079 7.584-2.262 6.009-9.846 4.93-12.699 10.151zm-6.531-235.87c3.83-21.965 15.839-32.214 29.129-41.577 3.548 4.725 13.596 8.265 16.258 14.271.987 2.954 1.878 11.522.796 14.182-1.278 4.038-9.846 4.929-15.065 7.001-8.27 3.746-19.198 11.336-31.118 6.123zM59.86 232.661c-.3-7.78.188-16.152 3.238-22.752 2.853-5.221 9.352-6.407 12.108-10.938 12.805 3.932 28.474 22.34 32.616 32.778l-1.079 7.584c-2.262 6.009-11.023 13.203-19.297 12.026-9.652-1.374-19.016-14.665-27.586-18.698zm-24.537-20.374c-5.221-2.853-9.36-8.366-15.075-12.696-5.025-4.232-12.315-7.38-15.173-12.007-5.224-7.778-11.342-29.047 4.712-28.17 3.447.491 5.22 2.854 8.57 4.034 10.737 3.638 26.297 3.038 33.884 9.042 5.322 7.088 4.54 17.528 5.137 28.164-6.3 4.731-14.474 7.788-22.055 11.633zm-14.074 14.879c-10.241 2.764-19.3 7.102-31.314 7.502-2.86-4.627-7.982-8.17-9.955-14.078 5.51-9.063 22.245-22.86 36.925-12.33 5.123 3.542 6.309 10.042 4.344 18.906zm-60.117-76.786c4.229-9.95 12.598-14.386 19.193-21.185l11.72 1.668c1.088 7.189 5.227 12.702 7.102 19.299-6.295 14.579-31.802 15.873-38.015.218zm189.837 282.347c-6.499 1.186-14.081 5.031-21.37 1.883-3.35-1.18-10.25-12.01-11.729-16.441-1.48-4.431-4.641-21.763-3.068-27.87 1.376-4.728 15.255-18.228 20.474-20.299 5.218-2.071 12.704-.302 18.514-1.586 8.183 16.64 4.357 43.529-2.821 64.313z" fill="#fff" fill-opacity=".04"/><path d="M107.752 381.024l9.915-15.029-18.752-14.283s-22.422 2.209-21.99 8.485c.43 6.276 1.687 19.068 3.262 20.025 1.164.708 10.051 3.159 17.25 4.931 3.968.977 8.065-.718 10.315-4.129zm-66.032 7.478l28.88-9.644s-1.65-19.898-13.232-18.694c-11.582 1.205-23.072 5.337-24.304 5.406-1.232.069 5.258 15.317 8.657 22.932zm-7.218 24.953c6.022 3.505 12.682 1.804 19.307 12.528 6.624 10.723-18.592 42.589-18.592 42.589l-39.457-1.947 2.807-32.61 14.38 2.046 21.555-22.606zm-24.467-60.026c15.547-1.15 34.88 6.186 39.153-4.515 4.273-10.7-9.21-19.037-9.21-19.037L2.863 309.313l-15.391 26.54 22.562 17.576zm21.585-125.91l17.287-1.207-6.224 43.738-25.87 35.746-34.85-30.022c1.864-8.089 5.652-24.686 5.89-26.364.24-1.677 22.18-2.651 33.121-2.928l10.645-18.963zm15.945 49.033l22.273 36.79s10.765 5.121 12.117 11.505c2.037 9.623-18.35 17.255-18.35 17.255L52.77 323.75l-21.576-15.907 16.372-31.291zm25.428 14.621c5.616-7.249 17.002-22.826 17.616-27.14L54.563 238.12l-4.994 24.352s17.807 35.951 23.424 28.701zm13.48 1.919c8.602.409 26.405 1.312 28.801 1.653 0 0 13.99 11.721 14.006 21.86.01 7.193-7.009 17.035-7.009 17.035s3.46 9.923-.164 14.036c-5.059 5.745-18.746-5.724-18.746-5.724l-19.659-29.388 2.771-19.472zM76.166 146.444s17.958-4.128 19.293-13.148c1.683-11.375-25.385-14.921-25.385-14.921l-1.529 21.483 7.621 6.586zm-15.246-21.73l5.892-24.224c1.958-8.05-21.767-33.669-33.874-45.471L8.898 71.464C5.907 83.163-.063 106.928-.028 108.4c.035 1.472 40.646 11.489 60.947 16.314z" fill="#fff" fill-opacity=".04"/><path fill-rule="evenodd" clip-rule="evenodd" d="M248.917 417.543c-.707-3.409 2.02-3.975-1.672-4.632-4.194-13.354-.978-21.845-.232-31.957 12.415-1.866 23.84-8.504 32.678-13.895 2.586-1.248 3.526-3.577 5.713-3.319 7.642-.875 10.022 7.166 18.346 6.149 1.016 8.324 2.032 16.648-.245 22.811-9.211 10.447-17.432 25.666-31.983 34.376-4.49 2.355-8.067-1.171-12.158-.321-2.496-5.172-5.532-9.521-10.447-9.212zm53.781-4.761c5.198 1.055-2.663-9.404 7.141-13.573 3.268-1.389 12.016-.36 15.991 1.66 12.325 4.554 27.056 20.7 36.371 24.457 1.724 11.733 13.483 13.56 11.798 26.001-1.57 9.572-12.454 15.387-25.294 15.207-12.84-.18-25.641-13.882-32.91-18.063-3.512-13.496-9.044-23.016-13.097-35.689zm-135.646 74.985c-9.456-2.753-7.984-13.095-13.601-18.114-13.985-.584-22.362-10.92-30.633-7.173-4.829-5.611-4.046-16.051-7.398-22.155 14.08-5.031 31.025 4.414 45.209 8.543.297 2.856 2.169 4.53 3.254 6.794 2.562 1.771 3.545-.199 5.418 1.474 9.753 5.609 1.981 20.681-2.249 30.631zm-42.591-264.213c-20.488-4.323-35.17-19.777-44.338-34.446 8.467-5.126 18.708-7.889 27.077-12.326 11.721 1.668 27.082-2.477 31.519 5.892 1.676 3.052 3.256 11.718 2.766 15.165-.39 7.683-13.187 18.523-17.024 25.715zm-60.703-67.719c-7.778 5.224-22.254 8.088-32.4 5.238-4.038-1.279-18.323-9.642-22.067-12.989-6.208-5.807-9.167-14.669-14.29-18.212 4.529-2.169 9.453-2.172 15.263-3.455 4.333-.79 9.058-4.338 13.983-4.341 12.606.387 25.512 8.554 36.939 12.291 1.972 5.908 5.422 11.323 2.572 21.468zM19.483 417.536c-13.99-10.432-19.89 6.314-33.088 5.139-9.557-6.987-9.168-14.669-8.98-30.821.192-11.227 1.854-32.797 11.997-34.87 8.764-2.27 25.316 9.933 36.544 10.124 4.142 10.437 5.921 22.648 9.276 33.677-5.118 6.306-10.236 12.612-15.749 16.751zm2489.877 19.651c-2.33-10.896 1.8-18.191-.53-29.086 5.55-14.007 22.77-23.39 39.26-16.237 3.35 5.692 7.24 10.556 10.21 17.755-5.74 9.776-22.28 19.013-31.04 28.01-3.65 2.917-13.81-1.317-17.9-.442zm-109 9.802c-7.88-16.83 2.49-28.307-.19-44.115 12.02-.435 20.48 9.149 27.68 16.154 7.87 6.86 16.43 13.574 24.85 19.607-1.03 5.204.43 12.014-3.9 15.077-14.93-3.213-34.43-1.175-48.44-6.723zm75.53.211c-1.94-2.433.59-7.247-.14-10.652 3.11-2.091 5.16-2.528 6.91-4.328 5.25-5.397 3.5-23.54 10.31-24.998 9.54-2.04 10.85 24.03 7.1 29.817-8.56 3.257-16.3 7.05-24.18 10.161zm-8.65-13.815c-16.39-.053-25.68-10.171-32.97-24.278 3.21-4.961 6.57-9.24 14.06-10.844 5.98 7.978 13.57 13.476 19.94 19.947-.2 5.739-.54 10.797-1.03 15.175zm-210.18-151.73c3.75-5.787 4.58-15.223 9.15-20.475 2.29-2.626 6.86-7.878 10.95-8.752 5.44-1.166 11.91 2.434 19.01 2.339 7.79-.242 13.48-3.597 21.79-4.665 1.32 6.129-.53 10.798 1.61 17.462-7.06 3.646-7.59 14.444-13.38 20.668-3.51 3.599-20.82 15.852-25.88 15.51-8.47.388-15.95-17.951-23.25-22.087zm-66.48 88.5c3.74-5.787 4.57-15.223 9.15-20.475 2.28-2.626 6.86-7.878 10.94-8.753 5.45-1.166 11.92 2.435 19.02 2.339 7.78-.241 13.47-3.596 21.79-4.664 1.31 6.128-.54 10.797 1.6 17.461-7.05 3.647-7.59 14.444-13.38 20.669-3.5 3.598-20.82 15.851-25.88 15.51-8.46.387-15.95-17.951-23.24-22.087zm267.38 23.199c5.01-3.209 13.18-4.958 18.87-8.313 8.31 8.903 6.17 22.181-.01 29.913-10.11-.683-14.63-11.823-18.86-21.6zm-122.14-1.634c3.21-4.96 3.7-9.338 9.54-12.011 3.79-2.237 9.82-.679 14.3-3.062 7.73-3.792 14.21-20.133 29.53-18.427 5.64 13.036 3.64 26.995-1.71 35.262.53 9.145 5.83 17.268 5.54 25.877-.54 10.798-12.99 19.161-24.52 15.219-9.05-2.337-11.48-20.333-20.33-28.409-4.57-4.719-11.13-5.45-12.35-14.449zm178.96-29.045c2.43 8.025 3.06 14.3-.3 18.579-8.8 5.446-28.94 21.152-28.16-1.805 5.89-9.094 15.47-27.526 28.46-16.774zm-116.89 32.853c.97-8.755 5.94-15.515 10.22-22.129 9.09 5.887 18.43 9.586 27.53 15.473-4.58 15.223-28.9 14.732-37.75 6.656zm112.36-73.903c5.74.195 11.77 1.753 16.44 3.602 4.43 14.009 17.41 14.79 22.37 27.973-1.8 8.219-1.41 16.682-11.09 18.042-4.43-4.038-9.92-6.422-16.54-10.704-4.13-2.676-14.44-7.591-16-11.531-2.43-8.026 5.5-17.557 4.82-27.382zm-224.72-76.685c2.14-13.278 12.7-40.464 32.94-39.098 7.92.439 9.14 9.438 11.47 20.333-3.21 14.932-28.85 28.253-44.41 18.765zm-66.49 88.5c2.15-13.278 12.71-40.465 32.94-39.098 7.93.439 9.14 9.438 11.47 20.333-3.21 14.931-28.84 28.253-44.41 18.765zm315.05-6.947c12.79-3.451 34.34-5.927 37.11 7.012.87 4.086-2.78 7.003-2.29 12.597-4.77 1.02-7.25-.585-13.23 1.407-6.13-8.659-17.07-9.877-21.59-21.016z" fill="#fff" fill-opacity=".04"/><path fill-rule="evenodd" clip-rule="evenodd" d="M2308.5 340.595c16.05-14.831 48.98-14.046 61.04-.959 1.02 4.767 1.9 8.852 2.92 13.619-4.97 6.76-9.2 16.924-17.76 20.181-3.94 1.556-21.69 1.795-24.71 1.016-14.79-2.532-17.07-19.848-21.49-33.857zm69.32 4.392c-11.92-22.377 9.59-38.374 24.71-30.929.83 10.506 2.28 27.287-2.1 36.77-8.75-.974-15.08-3.894-22.61-5.841zm-86.34-165.417c6.95-.777 13.52-.046 21.3-.287.24 7.782 1.17 15.418-1.07 21.595-9.68 1.36-20.72 12.982-24.81 3.886-3.11-7.88.98-18.726 4.58-25.194zm216.98 130.331c-1.41-3.259-3.89-4.864-5.84-7.297 2.15-13.278 5.94-25.485 21.46-19.548 2.33.925 2.62 2.287 5.78 3.747 11 4.769 27.48 1.951 34.93 6.768-.64 13.667-10.52 20.766-26.18 24.119-9.19-3.018-17.46-8.37-30.15-7.789zm-70.16-84.077c2.43 2.588 11.07 4.596 13.05 9.103 2.35 5.097-6.67 15.637-10.15 21.906-4.3 7.596-10.51 14.745-12.81 20.278-2.52 6.492-2.68 18.081-5.86 20.88-3.77 3.168-19.35.557-22.68 8.376-12.84-3.491-11.03-24.305-13.82-34.054 8.08-17.333 27.16-40.701 52.27-46.489zm-149.79-53.452c-5.54-5.936-3.6-13.474 1.12-18.045 11.92 2.434 28.51-3.253 39.35.835 1.9 8.853-6.81 11.429-10.56 17.216-10.36 1.506-19.79.677-29.91-.006z" fill="#fff" fill-opacity=".04"/><path fill-rule="evenodd" clip-rule="evenodd" d="M2344.16 310.886c7-7.197 6.71-18.53 6.96-30.69 5.98-1.993 11.28-3.84 14.79-7.438 9.09 5.887 28.01 11.095 20.86 27.582-.39 1.508-14.6 21.641-19.37 22.662-3.26 1.409-8.07-1.121-10.11-.684-3.85-1.314-9.24-6.568-13.13-11.432zm-28.5 13.224c-3.11-17.851-.77-36.869 22.57-37.593 1.02 4.767 3.5 6.372 4.91 9.631 0 9.971-13.67 19.307-19.02 27.574-.39 1.508-6.28.631-8.46.388zm-71.78 106.317c-4.75-27.291-1.18-56.365 34.52-57.473 1.56 7.288 5.35 9.743 7.5 14.725 0 15.244-20.9 29.517-29.08 42.156-.6 2.305-9.59.965-12.94.592zm96.89-195.274c-4.75-27.291-1.18-56.365 34.52-57.473 1.56 7.288 5.35 9.742 7.5 14.725 0 15.244-20.9 29.517-29.08 42.156-.6 2.305-9.59.965-12.94.592zm240.7 2.695c-20.18 7.45-42.89 8.786-48.73-18.326 5.35-2.212 6.69-5.452 10.2-7.795 11.64-2.131 25.47 11.837 36.27 16.319 1.84.133 2.08 7.194 2.26 9.802zm-50.57-105.339c-4.76-27.291-1.18-56.365 34.51-57.473 1.56 7.288 5.36 9.743 7.51 14.725 0 15.244-20.9 29.517-29.08 42.156-.6 2.305-9.6.965-12.94.592zm-136.01 97.375c1.11-4.796-2.2-10.117-3.96-15.582 10.95-16.664 29.63-14.344 40.6-.668-2.82 9.96-17.52 16.652-27.65 25.419-2.59 2.432-4.44 6.046-6.81 7.518-6.5 4.049-13.95 1.305-19.11-.402-1.83-9.526 6.81-14.088 16.93-16.285zm-81.1 174.351c-4.13-2.676-10.26-1.365-16-1.56-11.96-15.956-3.44-32.735 13.14-38.422 8.42 6.033 9.73 22.133 14.54 34.634 1.41 3.259 4.18 6.227 4.76 8.95 1.61 7.491-3.5 13.57-6.86 17.849-9.58-1.51-10.94-11.189-9.58-21.451zm84.5-221.589c5.85-7.741 15.9-13.998 18.86-22.408 8.94-1.461 17.87-2.922 25.55-1.137.43 4.651 3.38 9.381 3.22 14.4.07 4.06-3.94 14.757-6.89 16.597-1.78 1.105-24.01 7.562-29.99 7.183-8.26-1.417-10.76-8.065-10.75-14.635zm28.08 189.428c-5.3-8.124-7.78-19.701-14.68-25.344 1.65-8.901 3.31-17.801 7.59-24.415 4.52 1.168 9.97.002 14.64 1.851 3.84 1.314 12.55 8.709 13.28 12.114.43 2.043-1.03 25.146-3.41 30.642-4.14 7.295-11.24 7.39-17.42 5.152zm54.23-36.088c2.17 9.453 12.22 11.324 16.75 19.003-4.62 7.783-20.38 26.125-26.68 30.856-3.85-2.658-9.36-3.443-13.11-6.789-3.15-2.559-11.19 2.258-10.7-1.19 3.76-5.132 4.75-32.224 8.88-36.56 6.4-5.42 19.83-9.552 24.86-5.32zm-200.7 31.544c-5.3-8.123-7.78-19.7-14.68-25.344 1.65-8.9 3.31-17.801 7.59-24.415 4.53 1.169 9.97.003 14.64 1.852 3.84 1.314 12.55 8.709 13.28 12.114.43 2.043-1.03 25.146-3.41 30.641-4.14 7.295-11.24 7.391-17.42 5.152z" fill="#fff" fill-opacity=".04"/><path fill-rule="evenodd" clip-rule="evenodd" d="M2508.39 106.406c-5.3-8.124-7.77-19.7-14.68-25.344 1.66-8.9 3.31-17.8 7.59-24.415 4.53 1.169 9.97.002 14.64 1.852 3.84 1.314 12.55 8.709 13.28 12.114.44 2.043-1.03 25.146-3.41 30.641-4.14 7.295-11.24 7.391-17.42 5.152zM2277.97 22.78c-3.43-5.255-5.03-12.744-9.5-16.395 1.07-5.757 2.14-11.515 4.91-15.794 2.93.756 6.45.002 9.47 1.198 2.49.85 8.12 5.634 8.59 7.837.28 1.321-.66 16.267-2.2 19.822-2.68 4.719-7.27 4.78-11.27 3.332zm241.79 224.518c2.21 3.548 4.05 6.504 6.25 10.051-4.59 11.064-10.52 21.315-22.79 30.595-2.87-.669-5.16-1.707-8.41-2.967-1.01-10.853-8.44-26.737 1.47-34.545 6.36-5.599 15.58-3.959 23.48-3.134zm-104.1-119.771c4.66-7.004 10.28-13.786 16.27-19.976 5.17 1.707 10.33 3.413 12.91 7.552 2.35 5.097-2.25 16.162 7.93 24.595-6.23 13.719-21.21 10.741-31.17 7.918-2.5-6.648-3.44-13.441-5.94-20.089zm-226.72-61.953c3.01-4.53 6.65-8.918 10.52-12.922 3.35 1.104 6.69 2.208 8.35 4.885 1.52 3.297-1.45 10.455 5.13 15.91-4.02 8.876-13.71 6.949-20.16 5.123-1.61-4.3-2.23-8.695-3.84-12.996zm262.38 58.62c3.25-5.309 3.12-13.43 9.26-18.07 7.54-6.335 21.49-7.64 29.69-10.283 7.29 7.764 8.45 20.167 17.81 29.927 7.3 7.764 20.58 9.337 25.36 17.023-2.95 1.84-7.38 1.315-9.97 3.747-4.14 2.576-4.52 8.555-7.92 12.314-4.58 4.495-16.63 12.815-24.83 15.459-4.87 1.394-9.96-2.823-16.75-1.875-6.2.58-11.75 4.852-16.54 3.736-1.32-7.384-1.67-14.545 4.68-20.144-1.01-10.853-1.29-20.523-10.79-31.834zm-214.05-47.748c2.11-3.435 2.02-8.688 5.99-11.69 4.88-4.097 13.9-4.941 19.21-6.651 4.72 5.022 5.47 13.046 11.52 19.36 4.72 5.022 13.31 6.04 16.41 11.011-1.91 1.19-4.78.851-6.45 2.424-2.68 1.667-2.93 5.534-5.13 7.966-2.96 2.908-10.75 8.29-16.06 10-3.15.902-6.44-1.825-10.84-1.212-4.01.375-7.59 3.138-10.7 2.417-.85-4.777-1.08-9.409 3.03-13.031-.65-7.021-.83-13.277-6.98-20.594zm122.49 74.421c13.23-1.407 27.77 3.314 36.09 12.217-3.65 22.859-38.96 7.627-36.09-12.217zm128.59 31.491c.52-4.428 9.16-2.42 12.85-3.078 19.06-10.227 20.58-34.142 42.35-32.111.06 10.63-2.54 19.631-12.16 30.539-2.22 3.023-4.66 7.005-6.66 9.069-4.73 2.944-11.44 1.382-14.7 6.692-8.71.501-15.35-3.57-21.68-11.111zm-167.79-41.615c-1.02-4.767-1.89-8.853-2.91-13.62 9.29.148 22.95.783 30.69 6.962 1.84 15.273-19.17 6.951-27.78 6.658zm254.6-121.444c6.56 20.673-14.36 29.423-24.57 41.58-3.6-3.502-9.15-9.437-10.17-14.204-2.23-13.765 23.35-20.666 34.74-27.376zM1913.2 84.125c6.56 20.673-14.35 29.423-24.57 41.581-3.6-3.503-9.14-9.438-10.16-14.205-2.24-13.765 23.35-20.666 34.73-27.376z" fill="#fff" fill-opacity=".04"/><path fill-rule="evenodd" clip-rule="evenodd" d="M2288.75 92c3.27-11.381 10.66-20.086 18.06-28.79 14-4.424 24.27-3.06 30.39 5.6-7.88 13.081-29.13 16.92-38.67 28.931-3.84-1.314-6.86-2.093-9.78-5.741zM2320 48.28c-1.36-9.68 1.56-16.002 5.99-21.936 19.45-5.589 30.88 1.223 47.66-.232 11.53 13.913 5.59 39.398-4.97 46.643-3.11 2.09-21.93-5.987-24.56-8.274-2.62-2.286-4.33-6.907-7.49-8.367-6.03-1.558-11.67-4.623-16.63-7.835zm-226.65 58.884c-.88-6.262 1-10.352 3.87-14.19 12.59-3.615 19.98.791 30.83-.15 7.46 9 3.62 25.486-3.21 30.173-2.02 1.353-14.19-3.873-15.89-5.352-1.7-1.48-2.8-4.469-4.84-5.413-3.91-1.008-7.56-2.991-10.76-5.068zm431.17-84.86l-3.06-14.3c13.77-12.206 36.43-2.814 48.4 3.171-1.51 9.582-17.08 10.065-24.37 15.9-3.51 3.598-16.88-5.646-20.97-4.771zm-744.75 76.361l-3.06-14.3c13.76-12.206 36.43-2.814 48.39 3.172-1.51 9.581-17.07 10.064-24.37 15.899-3.5 3.599-16.88-5.646-20.96-4.771zm610.17-59.658c-3.55.048-.35 5.059-4.58 5.252-4.86-6.08 2.15-13.278 1.9-21.06-.04-3.55-3.11-7.88-2.47-11.577.19-5.739 7.25-9.385 9.1-14.054 14.29 6.91 23.24 32.058 17.45 48.253-.54.827-6.81 1.458-7.49 1.604-6.42-.05-8.03-7.541-13.91-8.418zm163.58-84.157c7.2-2.965 15.23-5.395 22.48-4.81 5.88.877 9.24 6.568 14.44 7.59.73 13.376-11.15 34.435-19.51 41.923l-7.49 1.604c-6.42-.05-16.2-5.792-17.95-13.964-2.04-9.533 7.2-22.907 8.03-32.343zm-156.35 154.537c-3.35-5.692-9.58-11.481-9.14-19.409-.05-3.55 7.74-13.763 11.39-16.68 3.65-2.918 18.82-11.864 25.1-12.495 4.91-.34 22.37 8.03 26.11 12.214 3.75 4.184 4.67 11.82 7.88 16.83-12.8 13.422-39.35 19.107-61.34 19.54zm-238.11-55.425c-2.17-3.682-6.2-7.427-5.92-12.555-.03-2.297 5.01-8.904 7.37-10.791 2.36-1.887 12.18-7.675 16.24-8.083 3.17-.22 14.47 5.195 16.89 7.901 2.42 2.707 3.02 7.647 5.1 10.888-8.28 8.682-25.46 12.36-39.68 12.64z" fill="#fff" fill-opacity=".04"/><path d="M2430.79 50.986l17.53 4.121 6.94-22.527s-9.81-20.284-15.56-17.714c-5.74 2.57-17.31 8.162-17.67 9.971-.26 1.337.51 10.524 1.33 17.892.45 4.061 3.45 7.322 7.43 8.257zm-29.8-59.397l19.02 23.78s18.1-8.415 12.98-18.87c-5.13-10.456-12.97-19.814-13.46-20.947-.49-1.133-12.56 10.22-18.54 16.037zm-25.91 1.833c-1.21 6.861 2.68 12.526-5.1 22.443-7.78 9.917-46.39-2.757-46.39-2.757l-11.78-37.706 31.58-8.616 3.04 14.203 28.65 12.433zm47.9-43.674c6.44 14.197 6.23 34.873 17.75 35.192 11.51.32 14.69-15.213 14.69-15.213l6.49-41.929-30.22-5.29-8.71 27.24zm125.63-23.178l7.09 15.81-43.2 9.247-42.47-11.95 16.15-43.068c8.24-1.04 25.12-3.211 26.78-3.565 1.66-.355 10.14 19.903 14.18 30.077l21.47 3.45zm-40.52 31.883L2481.24-7.95s-1.09 11.871-6.62 15.342c-8.33 5.232-22.53-11.27-22.53-11.27l13.49-16.502 7.49-25.74 35.02 4.573zm-4.96 28.91c8.75 2.77 27.3 8.083 31.56 7.171l11.88-42.773-24.58 3.715s-27.6 29.117-18.86 31.887zm2.85 13.315c2.59 8.215 7.88 25.236 8.39 27.603 0 0-6.18 17.175-15.69 20.687-6.75 2.492-18.4-.701-18.4-.701s-8.12 6.67-13.24 4.688c-7.13-2.767-1.09-19.57-1.09-19.57l20.8-28.59 19.23-4.117zm134.09-60.266s10.07 15.43 19 13.572c11.26-2.344 5.25-28.974 5.25-28.974l-20.69 5.977-3.56 9.425zm15.14-21.807l24.77-2.827c8.23-.94 24.09-32.046 30.99-47.482l-23.73-16.891c-12.01 1.23-36.37 3.826-37.74 4.367-1.37.54 3.23 42.114 5.71 62.833z" fill="#fff" fill-opacity=".04"/><path fill-rule="evenodd" clip-rule="evenodd" d="M2445.22 196.083c2.95-1.84 4.42.525 3.77-3.167 11.08-8.544 20.16-8.454 29.91-11.243 6.04 11.01 16.21 19.443 24.32 25.879 2.06 1.996 4.57 2.075 5.08 4.216 3.46 6.871-3.27 11.879.56 19.342-7.46 3.825-14.92 7.651-21.49 7.64-12.99-5.043-30.11-7.508-43.3-18.161-3.76-3.402-1.69-7.975-3.9-11.522 4-4.127 7.03-8.477 5.05-12.984zm23.02 48.837c.8 5.242 7.91-5.744 15.2 2.019 2.43 2.588 4.48 11.155 3.96 15.583-.02 13.139-10.1 32.536-10.41 42.575-10.42 5.666-8.07 17.333-20.33 20.043-9.53 1.829-18.74-6.38-23-18.494-4.26-12.114 4.18-28.856 5.6-37.121 11.45-7.953 18.48-16.429 28.98-24.605zm-150.93-122.71c-2.97-7.199-4.72-15.371-3.99-21.937.68-.146.97 1.216 1.12 1.897.93-2.334.34-5.058-.39-8.463 6.62-5.69 15.18-8.946 21.94-13.954 4.53 1.168 10.12.683 13.57 3.504 2.09 3.114-2.28 2.626-1.02 5.205 3.21 5.01 5.2 10.993 8.41 16.004-1.85 4.669-.93 12.305-2.78 16.974-15.22 5.395-23.63-.638-36.86.77z" fill="#fff" fill-opacity=".04"/><path fill-rule="evenodd" clip-rule="evenodd" d="M2351.06 143.47c-.68-9.825 9.54-12.011 12.31-19.015-4.28-13.328 2.53-24.756-3.84-31.227 3.6-6.468 13.67-9.335 18.25-14.587 9.58 11.48 6.56 30.644 7.57 45.381-2.57 1.264-3.5 3.599-5.25 5.398-.78 3.016 1.41 3.259.49 5.594-1.9 11.089-18.73 8.994-29.53 8.456zm-327.81-80.383c-2.04-14.065 4.36-27.039 11.56-36.314 5.25 4.194 9.41 10.071 14.2 14.364 1.68 7.858 7.92 16.675 3.62 21.46-1.55 1.783-6.7 4.82-9.01 5.314-4.99 1.55-14.89-4.064-20.37-4.825zm15.18 160.178c-5.51 9.682-13.45 12.372-18.97 22.054-13.46 6.757-32.56 2.294-40.1-14.021 1.29-6.48 1.63-12.699 4.21-20.045 10.79-3.471 29.28.648 41.8-.235 4.67.253 9.43 10.179 13.06 12.247zm87.86 65.26c-5.33 17.801-20.7 19.465-29.23 33.039-9.25-7.674-9.19-20.458-9.89-30.477-1.31-10.363-3.23-21.071-5.49-31.174 4.23-3.202 7.67-9.254 12.94-8.657 9.01 12.339 24.92 23.804 31.67 37.269zm-56.22-50.447c-.16 3.109-5.26 5.017-6.98 8.043-3.72-.513-5.53-1.547-8.04-1.37-7.51.529-18.29 15.229-24.34 11.783-8.47-4.825 7.91-25.148 14.56-26.971 8.56 3.269 16.85 5.589 24.8 8.515zm-2.74 16.067c12.2 10.952 12.39 24.686 8.44 40.067-5.7 1.563-11.05 2.522-17.71-1.269.85-9.935-1.15-19.088-1.6-28.157 3.97-4.152 7.59-7.699 10.87-10.641zm164.33 231.38c-6.64 1.824-13.54 8.313-20.45 9.187-3.46.437-10.37 1.31-14-.757-4.84-2.757-7.27-9.75-12.63-14.407-5.97-5.001-12.45-6.287-19.37-11.028 3.11-5.446 7.59-7.699 10.44-14.095 7.69 1.976 15.28-5.723 23.74-6.513 5.01-.353 26.09 2.035 29.64 5.657 6.57 5.346-.06 24.014 2.63 31.956zm-184.05-195.328c-5.88-.942-13.14-5.077-19.62-6.364-.28-12.178 10.16-20.659 19.92-22.314 7.1 7.245 3.05 18.567-.3 28.678zm90.04 82.534c-5.7 1.563-8.98 4.505-15.11 2.613-4.32-.857-7.79-6.035-12.71-7.237-8.3-2.32-24.01 5.564-34.3-5.91 4.47-13.481 15.25-22.566 24.75-25.172 5.69-7.177 7.15-16.768 13.1-22.995 7.59-7.699 22.45-5.648 28.42 4.968 5.2 7.766-4.97 22.811-3.75 34.729.27 6.564 4.68 11.481-.4 19.004zm-152.87-97.475c3.54-7.606 7.24-12.708 12.6-13.666 10.19 1.799 35.68 3.489 19.81 20.097-10.45 2.866-29.88 10.237-32.41-6.431zm109.09 53.31c-6.55 5.884-14.76 7.623-22.35 9.707-2.87-10.447-7.38-19.424-10.24-29.871 13.55-8.312 31.37 8.246 32.59 20.164zm-133.04-19.67c-4.15-3.968-7.62-9.145-9.87-13.634 6.03-13.397-3.14-22.626 1.93-35.763 6.82-4.933 12.17-11.506 20.29-6.076.62 5.959 3.13 11.397 5.21 18.995 1.31 4.749 5.73 15.281 4.27 19.256-3.53 7.607-15.8 9.439-21.83 17.222zm-104.54 27.343c2.54-3.652 6.1-6.919 9.27-9.177 10.98 3.029 16.97-5.091 27.63-2.758 4.59 4.638 10.26 7.954 7.06 14.825-4.49 1.177-8.36 3.747-13.93 6.245-3.49 1.561-11.03 6.198-14.25 5.548-6.25-1.803-9.11-10.982-15.78-14.683zm90-46.843c-11.85-5.943-29.57-18.442-23.02-29.939 2.06-3.631 6.73-3.379 10.09-7.876 4.24 2.413 5.02 5.262 10.81 7.758-1.19 10.54 6.16 18.735 2.12 30.057z" fill="#fff" fill-opacity=".04"/><path fill-rule="evenodd" clip-rule="evenodd" d="M2124 429.069c-21.86.378-45.9-22.132-46.19-39.925 2.42-4.236 4.48-7.867 6.9-12.103 8.2-1.74 18.13-6.505 26.68-3.235 3.98 1.462 17.38 13.104 19.11 15.693 9.35 11.733-.48 26.173-6.5 39.57zm-48.8-49.427c-6.01 24.627-32.7 22.247-39.03 6.622 6.38-8.388 16.46-21.877 26.05-26.038 5.88 6.556 8.65 12.944 12.98 19.416zm-120.84-60.803c-1.12 3.37-.33 6.219-.5 9.329-10.44 8.481-21.4 15.061-29.03.302-1.12-2.244-.43-3.454-1.82-6.648-5.02-10.877-19.2-19.753-21.55-28.301 9.58-9.774 21.67-8.497 35.59-.57 4.85 8.371 7.45 17.869 17.31 25.888zm-106.46 13.625c-2.71-.456-4.81.48-7.21.72-7.73-6.993-14.08-14.611-3.67-22.202 1.59-1.129 2.59-.744 4.88-2.185 7.73-5.141 12.85-17.057 19.13-19.867 8.62 6.176 9.08 15.595 4.65 27.199-5.84 4.708-12.8 7.831-17.78 16.335zm102.83 95.82c-.09-3.55-5.19-10.797-3.67-15.481 1.63-5.37 15.39-7.226 22.16-9.586 8.26-2.809 17.65-4.007 23.05-6.605 6.2-3.165 14.05-11.7 18.28-11.673 4.92.147 14.8 12.462 22.5 8.849 7.25 11.153-7.95 25.479-12.36 34.609-17.57 7.556-47.37 12.285-69.96-.113z" fill="#fff" fill-opacity=".04"/><path fill-rule="evenodd" clip-rule="evenodd" d="M2077.61 427.496c-10.02.706-17.35 9.354-25.63 18.264-5.79-2.497-10.97-4.649-15.98-4.296-2.87-10.447-13.52-26.93 2.8-34.469 1.29-.865 25.3-6.429 29.53-4.017 3.37 1.118 5.28 6.212 7.1 7.246 1.99 3.538 2.52 11.053 2.18 17.272zm30.07 9.109c-9.56 15.39-23.97 28.022-41.87 13.018 2.41-4.236 1.63-7.085 2.75-10.455 6.64-7.438 23.05-5.303 32.55-7.908 1.29-.866 5.1 3.706 6.57 5.345zm124.34-31.541c-14.62 23.528-36.65 42.84-64.02 19.903 3.69-6.477 2.5-10.833 4.2-15.986 10.16-11.371 35.25-8.107 49.77-12.09 1.98-1.323 7.8 5.667 10.05 8.173zm-412.51 31.194c-14.62 23.527-36.65 42.84-64.02 19.902 3.69-6.476 2.5-10.832 4.21-15.985 10.15-11.372 35.24-8.107 49.76-12.09 1.98-1.324 7.8 5.667 10.05 8.173zm166.32 17.9c-4.03 2.835-5.1 9.011-7.42 14.262-19.27 5.141-31.66-9.022-30.74-26.533 8.74-5.553 24.16-.758 37.56-.556 3.55-.092 7.33-1.555 10.08-1.079 7.55 1.308 11.28 8.317 13.99 13.028-4.97 8.326-14.46 5.974-23.47.878zm176.59-76.097c1.3 4.749 6.75 7.85 10.9 11.817-1.7 19.87-19.22 26.719-35.39 19.919-2.26-10.103 7.48-22.987 12.22-35.519 1.11-3.37 1.02-7.43 2.4-9.851 3.79-6.656 11.65-7.791 17-8.749 6.15 7.506.72 15.634-7.13 22.383zm-105.41-50.957c-1.46 9.59-7.32 19.877-5.92 28.686-7.16 5.538-14.32 11.077-21.92 13.161-2.6-3.883-7.44-6.64-9.69-11.128-1.99-3.539-3.57-14.852-1.84-17.878 1.03-1.815 17.5-18.078 22.94-20.591 7.95-2.69 13.31 1.967 16.43 7.75zm-64.49-9.176c4.67-8.499-1.58-16.586.15-25.334 8.63-2.728 32.6-5.922 40.45-5.257 1.1 4.541 4.69 8.799 5.26 13.788.65 4.009 9.86 5.772 7.2 8.018-6.23 1.32-25 20.881-30.97 21.364-8.38-.217-21.16-6.075-22.09-12.579zm-139.4 43.666c7.07 2.573 12.52-3.177 19.43-2.889 3.12 6.291 8.4 24.278 8.83 30.372-3.35 1.38-6.19 4.638-9.95 5.663-2.99.972-3.25 8.238-5.29 6.466-1.75-4.616-18.96-16.679-20.04-21.197-.83-6.449 2.15-16.93 7.02-18.415zm310.15 66.417c-1.46 9.591-7.32 19.878-5.92 28.687-7.16 5.538-14.32 11.077-21.92 13.161-2.6-3.883-7.44-6.64-9.69-11.128-1.99-3.539-3.57-14.852-1.84-17.878 1.03-1.815 17.51-18.079 22.94-20.591 7.95-2.69 13.31 1.967 16.43 7.749zm-259.02-69.983c.72-4.117 1.31-7.548 2.03-11.665 10.79-5.196 22.04-8.901 37.37-7.656 1.7 2.416 2.72 4.712 4.3 7.814-6.47 8.773-11.5 25.57-24.09 24.801-8.47-.055-14.26-7.42-19.61-13.294zm-30.89 137.419c-5.97 1.793-11.27 7.941-18.94 7.318-9.85-.293-21.13-8.61-29-12.096-.28-10.649 7.12-20.676 6.63-34.189-.27-10.649-9.14-20.668-7.59-29.588 3.43.595 6.39 3.934 9.94 3.843 4.8.833 9.06-3.375 14.1-3.915 6.42-.301 20.95 1.511 28.82 4.997 4.57 2.205 5.56 8.738 11.25 12.553 5.02 3.697 12 4.2 14.83 8.226-3.93 6.385-8.43 11.966-16.9 11.911-6.47 8.773-12.7 16.174-13.14 30.94z" fill="#fff" fill-opacity=".04"/><path fill-rule="evenodd" clip-rule="evenodd" d="M1884.45 427.393c-3.34 2.955-8.44-4.292-11.64-6.259-21.03-5.06-38.08 11.773-52.98-4.239 7.04-7.968 14.97-12.954 29.41-14.691 3.67-.778 8.14-2.122 11-2.333 5.49.952 9.46 6.588 15.43 4.795 6.83 5.426 9.07 12.882 8.78 22.727zm-140.15 21.058c-1.27 17.71-17.93 25.854-30.45 26.736-8.55-3.27-9.77-9.574-14.1-16.046-5.2-7.766-10.38-9.918-8.67-18.558 14.75-13.238 37.83-7.312 53.22 7.868zm181.47-2.581c-3.43-.594-2.95-3.339-4.92-.146-13.96-1.007-20.67-7.119-29.81-11.529 2.83-12.232.86-25.297-.91-35.498-.21-2.864-2.03-4.593-.99-6.533 2-7.429 10.35-6.687 12.47-14.802 8.11 2.114 16.23 4.228 21.12 8.61 6.33 12.407 17.46 25.646 20.22 42.379.54 5.041-4.06 7.072-4.77 11.189-5.73.421-10.89 1.646-12.41 6.33zm15.34-51.766c2.89-4.447-9.72-.98-10-11.629-.09-3.55 4.08-11.308 7.42-14.263 8.77-9.789 29.2-17.555 36.11-24.837 11.55 2.708 17.57-7.556 28.52-1.417 8.33 4.978 9.73 17.237 4.85 29.112-4.89 11.875-22.34 18.745-28.9 23.969-13.84-1.693-24.72-.047-38-.935zm-152.45-62.869c3.75 1.688-.4-7.568 7.72-9.04 2.71-.491 9.15 1.786 11.81 3.994 8.54 5.555 16.92 20.288 23.32 24.725-.71 9.167 7.87 12.563 4.46 21.682-2.82 6.969-12.05 9.502-21.73 7.166-9.68-2.336-17.01-14.89-21.79-19.297-.34-10.807-2.9-18.953-3.79-29.23z" fill="#fff" fill-opacity=".04"/></g><defs><linearGradient id="paint0_linear_2300_11487" x1="535.111" y1="-371.972" x2="993.872" y2="701.182" gradientUnits="userSpaceOnUse"><stop stop-color="#4C3746"/><stop offset="1" stop-color="#101740"/></linearGradient><linearGradient id="paint1_linear_2300_11487" x1="1153.78" y1="-381.901" x2="1326.45" y2="493.619" gradientUnits="userSpaceOnUse"><stop stop-color="#274F6C"/><stop offset="1" stop-color="#0E163E"/></linearGradient><linearGradient id="paint2_linear_2300_11487" x1="578.813" y1="183.555" x2="554.719" y2="522.708" gradientUnits="userSpaceOnUse"><stop stop-color="#00B2FE" stop-opacity=".72"/><stop offset="1" stop-opacity="0"/></linearGradient><linearGradient id="paint3_linear_2300_11487" x1="1732.89" y1="-149.238" x2="1737.63" y2="131.698" gradientUnits="userSpaceOnUse"><stop stop-color="#00A3FE"/><stop offset="1" stop-color="#333A68" stop-opacity="0"/></linearGradient><filter id="filter0_f_2300_11487" x="338.356" y="163.049" width="480.913" height="525.435" filterUnits="userSpaceOnUse" color-interpolation-filters="sRGB"><feFlood flood-opacity="0" result="BackgroundImageFix"/><feBlend in="SourceGraphic" in2="BackgroundImageFix" result="shape"/><feGaussianBlur stdDeviation="12" result="effect1_foregroundBlur_2300_11487"/></filter><filter id="filter1_f_2300_11487" x="1453.74" y="-186.175" width="558.296" height="558.296" filterUnits="userSpaceOnUse" color-interpolation-filters="sRGB"><feFlood flood-opacity="0" result="BackgroundImageFix"/><feBlend in="SourceGraphic" in2="BackgroundImageFix" result="shape"/><feGaussianBlur stdDeviation="27" result="effect1_foregroundBlur_2300_11487"/></filter></defs></svg>